<?xml version="1.0" encoding="UTF-8" standalone="no"?><svg xmlns="http://www.w3.org/2000/svg" xmlns:xlink="http://www.w3.org/1999/xlink" contentScriptType="application/ecmascript" contentStyleType="text/css" height="323px" preserveAspectRatio="none" style="width:459px;height:323px;background:#FFFFFF;" version="1.1" viewBox="0 0 459 323" width="459px" zoomAndPan="magnify"><defs><filter height="300%" id="f1cul7b4f92gak" width="300%" x="-1" y="-1"><feGaussianBlur result="blurOut" stdDeviation="2.0"/><feColorMatrix in="blurOut" result="blurOut2" type="matrix" values="0 0 0 0 0 0 0 0 0 0 0 0 0 0 0 0 0 0 .4 0"/><feOffset dx="4.0" dy="4.0" in="blurOut2" result="blurOut3"/><feBlend in="SourceGraphic" in2="blurOut3" mode="normal"/></filter></defs><g><rect codeLine="1" fill="#FEFECE" filter="url(#f1cul7b4f92gak)" height="60.8047" id="FactoryMethodDemo" style="stroke:#A80036;stroke-width:1.5;" width="161" x="69.5" y="7"/><ellipse cx="84.5" cy="23" fill="#ADD1B2" rx="11" ry="11" style="stroke:#A80036;stroke-width:1.0;"/><path d="M87.4688,28.6406 Q86.8906,28.9375 86.25,29.0859 Q85.6094,29.2344 84.9063,29.2344 Q82.4063,29.2344 81.0859,27.5859 Q79.7656,25.9375 79.7656,22.8125 Q79.7656,19.6875 81.0859,18.0313 Q82.4063,16.375 84.9063,16.375 Q85.6094,16.375 86.2578,16.5313 Q86.9063,16.6875 87.4688,16.9844 L87.4688,19.7031 Q86.8438,19.125 86.25,18.8516 Q85.6563,18.5781 85.0313,18.5781 Q83.6875,18.5781 83,19.6484 Q82.3125,20.7188 82.3125,22.8125 Q82.3125,24.9063 83,25.9766 Q83.6875,27.0469 85.0313,27.0469 Q85.6563,27.0469 86.25,26.7734 Q86.8438,26.5 87.4688,25.9219 L87.4688,28.6406 Z " fill="#000000"/><text fill="#000000" font-family="sans-serif" font-size="12" lengthAdjust="spacing" textLength="129" x="98.5" y="27.1543">FactoryMethodDemo</text><line style="stroke:#A80036;stroke-width:1.5;" x1="70.5" x2="229.5" y1="39" y2="39"/><line style="stroke:#A80036;stroke-width:1.5;" x1="70.5" x2="229.5" y1="47" y2="47"/><ellipse cx="80.5" cy="58" fill="#84BE84" rx="3" ry="3" style="stroke:#038048;stroke-width:1.0;"/><text fill="#000000" font-family="sans-serif" font-size="11" lengthAdjust="spacing" textLength="36" x="89.5" y="61.2104">main()</text><rect codeLine="4" fill="#FEFECE" filter="url(#f1cul7b4f92gak)" height="60.8047" id="BenzCarFactory" style="stroke:#A80036;stroke-width:1.5;" width="128" x="317" y="128"/><ellipse cx="332" cy="144" fill="#ADD1B2" rx="11" ry="11" style="stroke:#A80036;stroke-width:1.0;"/><path d="M334.9688,149.6406 Q334.3906,149.9375 333.75,150.0859 Q333.1094,150.2344 332.4063,150.2344 Q329.9063,150.2344 328.5859,148.5859 Q327.2656,146.9375 327.2656,143.8125 Q327.2656,140.6875 328.5859,139.0313 Q329.9063,137.375 332.4063,137.375 Q333.1094,137.375 333.7578,137.5313 Q334.4063,137.6875 334.9688,137.9844 L334.9688,140.7031 Q334.3438,140.125 333.75,139.8516 Q333.1563,139.5781 332.5313,139.5781 Q331.1875,139.5781 330.5,140.6484 Q329.8125,141.7188 329.8125,143.8125 Q329.8125,145.9063 330.5,146.9766 Q331.1875,148.0469 332.5313,148.0469 Q333.1563,148.0469 333.75,147.7734 Q334.3438,147.5 334.9688,146.9219 L334.9688,149.6406 Z " fill="#000000"/><text fill="#000000" font-family="sans-serif" font-size="12" lengthAdjust="spacing" textLength="96" x="346" y="148.1543">BenzCarFactory</text><line style="stroke:#A80036;stroke-width:1.5;" x1="318" x2="444" y1="160" y2="160"/><line style="stroke:#A80036;stroke-width:1.5;" x1="318" x2="444" y1="168" y2="168"/><ellipse cx="328" cy="179" fill="#84BE84" rx="3" ry="3" style="stroke:#038048;stroke-width:1.0;"/><text fill="#000000" font-family="sans-serif" font-size="11" lengthAdjust="spacing" textLength="64" x="337" y="182.2104">createCar()</text><rect codeLine="7" fill="#FEFECE" filter="url(#f1cul7b4f92gak)" height="60.8047" id="MaybachCarFactory" style="stroke:#A80036;stroke-width:1.5;" width="154" x="7" y="128"/><ellipse cx="22" cy="144" fill="#ADD1B2" rx="11" ry="11" style="stroke:#A80036;stroke-width:1.0;"/><path d="M24.9688,149.6406 Q24.3906,149.9375 23.75,150.0859 Q23.1094,150.2344 22.4063,150.2344 Q19.9063,150.2344 18.5859,148.5859 Q17.2656,146.9375 17.2656,143.8125 Q17.2656,140.6875 18.5859,139.0313 Q19.9063,137.375 22.4063,137.375 Q23.1094,137.375 23.7578,137.5313 Q24.4063,137.6875 24.9688,137.9844 L24.9688,140.7031 Q24.3438,140.125 23.75,139.8516 Q23.1563,139.5781 22.5313,139.5781 Q21.1875,139.5781 20.5,140.6484 Q19.8125,141.7188 19.8125,143.8125 Q19.8125,145.9063 20.5,146.9766 Q21.1875,148.0469 22.5313,148.0469 Q23.1563,148.0469 23.75,147.7734 Q24.3438,147.5 24.9688,146.9219 L24.9688,149.6406 Z " fill="#000000"/><text fill="#000000" font-family="sans-serif" font-size="12" lengthAdjust="spacing" textLength="122" x="36" y="148.1543">MaybachCarFactory</text><line style="stroke:#A80036;stroke-width:1.5;" x1="8" x2="160" y1="160" y2="160"/><line style="stroke:#A80036;stroke-width:1.5;" x1="8" x2="160" y1="168" y2="168"/><ellipse cx="18" cy="179" fill="#84BE84" rx="3" ry="3" style="stroke:#038048;stroke-width:1.0;"/><text fill="#000000" font-family="sans-serif" font-size="11" lengthAdjust="spacing" textLength="64" x="27" y="182.2104">createCar()</text><rect codeLine="10" fill="#FEFECE" filter="url(#f1cul7b4f92gak)" height="60.8047" id="BenzCar" style="stroke:#A80036;stroke-width:1.5;" width="86" x="267" y="249"/><ellipse cx="283.8" cy="265" fill="#ADD1B2" rx="11" ry="11" style="stroke:#A80036;stroke-width:1.0;"/><path d="M286.7688,270.6406 Q286.1906,270.9375 285.55,271.0859 Q284.9094,271.2344 284.2063,271.2344 Q281.7063,271.2344 280.3859,269.5859 Q279.0656,267.9375 279.0656,264.8125 Q279.0656,261.6875 280.3859,260.0313 Q281.7063,258.375 284.2063,258.375 Q284.9094,258.375 285.5578,258.5313 Q286.2063,258.6875 286.7688,258.9844 L286.7688,261.7031 Q286.1438,261.125 285.55,260.8516 Q284.9563,260.5781 284.3313,260.5781 Q282.9875,260.5781 282.3,261.6484 Q281.6125,262.7188 281.6125,264.8125 Q281.6125,266.9063 282.3,267.9766 Q282.9875,269.0469 284.3313,269.0469 Q284.9563,269.0469 285.55,268.7734 Q286.1438,268.5 286.7688,267.9219 L286.7688,270.6406 Z " fill="#000000"/><text fill="#000000" font-family="sans-serif" font-size="12" lengthAdjust="spacing" textLength="50" x="298.2" y="269.1543">BenzCar</text><line style="stroke:#A80036;stroke-width:1.5;" x1="268" x2="352" y1="281" y2="281"/><line style="stroke:#A80036;stroke-width:1.5;" x1="268" x2="352" y1="289" y2="289"/><ellipse cx="278" cy="300" fill="#84BE84" rx="3" ry="3" style="stroke:#038048;stroke-width:1.0;"/><text fill="#000000" font-family="sans-serif" font-size="11" lengthAdjust="spacing" textLength="60" x="287" y="303.2104">getBrand()</text><rect codeLine="13" fill="#FEFECE" filter="url(#f1cul7b4f92gak)" height="60.8047" id="MaybachCar" style="stroke:#A80036;stroke-width:1.5;" width="108" x="113" y="249"/><ellipse cx="128" cy="265" fill="#ADD1B2" rx="11" ry="11" style="stroke:#A80036;stroke-width:1.0;"/><path d="M130.9688,270.6406 Q130.3906,270.9375 129.75,271.0859 Q129.1094,271.2344 128.4063,271.2344 Q125.9063,271.2344 124.5859,269.5859 Q123.2656,267.9375 123.2656,264.8125 Q123.2656,261.6875 124.5859,260.0313 Q125.9063,258.375 128.4063,258.375 Q129.1094,258.375 129.7578,258.5313 Q130.4063,258.6875 130.9688,258.9844 L130.9688,261.7031 Q130.3438,261.125 129.75,260.8516 Q129.1563,260.5781 128.5313,260.5781 Q127.1875,260.5781 126.5,261.6484 Q125.8125,262.7188 125.8125,264.8125 Q125.8125,266.9063 126.5,267.9766 Q127.1875,269.0469 128.5313,269.0469 Q129.1563,269.0469 129.75,268.7734 Q130.3438,268.5 130.9688,267.9219 L130.9688,270.6406 Z " fill="#000000"/><text fill="#000000" font-family="sans-serif" font-size="12" lengthAdjust="spacing" textLength="76" x="142" y="269.1543">MaybachCar</text><line style="stroke:#A80036;stroke-width:1.5;" x1="114" x2="220" y1="281" y2="281"/><line style="stroke:#A80036;stroke-width:1.5;" x1="114" x2="220" y1="289" y2="289"/><ellipse cx="124" cy="300" fill="#84BE84" rx="3" ry="3" style="stroke:#038048;stroke-width:1.0;"/><text fill="#000000" font-family="sans-serif" font-size="11" lengthAdjust="spacing" textLength="60" x="133" y="303.2104">getBrand()</text><rect codeLine="17" fill="#FEFECE" filter="url(#f1cul7b4f92gak)" height="60.8047" id="CarFactory" style="stroke:#A80036;stroke-width:1.5;" width="99" x="298.5" y="7"/><ellipse cx="313.5" cy="23" fill="#B4A7E5" rx="11" ry="11" style="stroke:#A80036;stroke-width:1.0;"/><path d="M309.4219,18.7656 L309.4219,16.6094 L316.8125,16.6094 L316.8125,18.7656 L314.3438,18.7656 L314.3438,26.8438 L316.8125,26.8438 L316.8125,29 L309.4219,29 L309.4219,26.8438 L311.8906,26.8438 L311.8906,18.7656 L309.4219,18.7656 Z " fill="#000000"/><text fill="#000000" font-family="sans-serif" font-size="12" font-style="italic" lengthAdjust="spacing" textLength="67" x="327.5" y="27.1543">CarFactory</text><line style="stroke:#A80036;stroke-width:1.5;" x1="299.5" x2="396.5" y1="39" y2="39"/><line style="stroke:#A80036;stroke-width:1.5;" x1="299.5" x2="396.5" y1="47" y2="47"/><ellipse cx="309.5" cy="58" fill="#84BE84" rx="3" ry="3" style="stroke:#038048;stroke-width:1.0;"/><text fill="#000000" font-family="sans-serif" font-size="11" lengthAdjust="spacing" textLength="64" x="318.5" y="61.2104">createCar()</text><rect codeLine="20" fill="#FEFECE" filter="url(#f1cul7b4f92gak)" height="60.8047" id="Car" style="stroke:#A80036;stroke-width:1.5;" width="86" x="196" y="128"/><ellipse cx="225.85" cy="144" fill="#B4A7E5" rx="11" ry="11" style="stroke:#A80036;stroke-width:1.0;"/><path d="M221.7719,139.7656 L221.7719,137.6094 L229.1625,137.6094 L229.1625,139.7656 L226.6938,139.7656 L226.6938,147.8438 L229.1625,147.8438 L229.1625,150 L221.7719,150 L221.7719,147.8438 L224.2406,147.8438 L224.2406,139.7656 L221.7719,139.7656 Z " fill="#000000"/><text fill="#000000" font-family="sans-serif" font-size="12" font-style="italic" lengthAdjust="spacing" textLength="21" x="243.15" y="148.1543">Car</text><line style="stroke:#A80036;stroke-width:1.5;" x1="197" x2="281" y1="160" y2="160"/><line style="stroke:#A80036;stroke-width:1.5;" x1="197" x2="281" y1="168" y2="168"/><ellipse cx="207" cy="179" fill="#84BE84" rx="3" ry="3" style="stroke:#038048;stroke-width:1.0;"/><text fill="#000000" font-family="sans-serif" font-size="11" lengthAdjust="spacing" textLength="60" x="216" y="182.2104">getBrand()</text><path codeLine="26" d="M267.114,206.4125 C275.5285,220.7528 284.5224,236.0804 292.0894,248.9764 " fill="none" id="Car-backto-BenzCar" style="stroke:#A80036;stroke-width:1.0;stroke-dasharray:7.0,7.0;"/><polygon fill="none" points="261.0007,209.8257,256.9163,189.0334,273.0754,202.7405,261.0007,209.8257" style="stroke:#A80036;stroke-width:1.0;"/><path codeLine="27" d="M210.4901,206.4125 C201.957,220.7528 192.8365,236.0804 185.1628,248.9764 " fill="none" id="Car-backto-MaybachCar" style="stroke:#A80036;stroke-width:1.0;stroke-dasharray:7.0,7.0;"/><polygon fill="none" points="204.5886,202.6412,220.8314,189.0334,216.6197,209.8003,204.5886,202.6412" style="stroke:#A80036;stroke-width:1.0;"/><path codeLine="28" d="M361.59,87.3301 C365.3483,101.1105 369.3146,115.6535 372.6754,127.9764 " fill="none" id="CarFactory-backto-BenzCarFactory" style="stroke:#A80036;stroke-width:1.0;stroke-dasharray:7.0,7.0;"/><polygon fill="none" points="354.8364,89.1705,356.3273,68.0334,368.3431,85.4868,354.8364,89.1705" style="stroke:#A80036;stroke-width:1.0;"/><path codeLine="29" d="M280.0415,68.6477 C240.3268,86.8502 190.4041,109.7314 150.8769,127.8481 " fill="none" id="CarFactory-backto-MaybachCarFactory" style="stroke:#A80036;stroke-width:1.0;stroke-dasharray:7.0,7.0;"/><polygon fill="none" points="277.2457,62.2289,298.3436,60.2592,283.0789,74.9558,277.2457,62.2289" style="stroke:#A80036;stroke-width:1.0;"/><path codeLine="31" d="M363.0837,189.0334 C353.1615,205.9431 340.7875,227.0312 330.483,244.5923 " fill="none" id="BenzCarFactory-to-BenzCar" style="stroke:#A80036;stroke-width:1.0;stroke-dasharray:7.0,7.0;"/><polygon fill="#A80036" points="327.9106,248.9764,335.9153,243.2384,330.441,244.664,329.0154,239.1897,327.9106,248.9764" style="stroke:#A80036;stroke-width:1.0;"/><path codeLine="32" d="M104.9444,189.0334 C116.5436,205.9431 131.009,227.0312 143.0551,244.5923 " fill="none" id="MaybachCarFactory-to-MaybachCar" style="stroke:#A80036;stroke-width:1.0;stroke-dasharray:7.0,7.0;"/><polygon fill="#A80036" points="146.0623,248.9764,144.2698,239.292,143.234,244.8532,137.6728,243.8174,146.0623,248.9764" style="stroke:#A80036;stroke-width:1.0;"/><path codeLine="33" d="M208.2911,68.0334 C241.8042,85.5879 283.9144,107.6456 318.1635,125.5856 " fill="none" id="FactoryMethodDemo-to-BenzCarFactory" style="stroke:#A80036;stroke-width:1.0;stroke-dasharray:7.0,7.0;"/><polygon fill="#A80036" points="322.7276,127.9764,316.6113,120.2569,318.2985,125.6563,312.8991,127.3435,322.7276,127.9764" style="stroke:#A80036;stroke-width:1.0;"/><path codeLine="34" d="M133.3454,68.0334 C124.2001,84.7998 112.8142,105.674 103.2845,123.1451 " fill="none" id="FactoryMethodDemo-to-MaybachCarFactory" style="stroke:#A80036;stroke-width:1.0;stroke-dasharray:7.0,7.0;"/><polygon fill="#A80036" points="100.6493,127.9764,108.4705,121.9907,103.0435,123.5869,101.4473,118.1599,100.6493,127.9764" style="stroke:#A80036;stroke-width:1.0;"/></g></svg>