<?xml version="1.0" encoding="UTF-8" standalone="no"?><svg xmlns="http://www.w3.org/2000/svg" xmlns:xlink="http://www.w3.org/1999/xlink" contentScriptType="application/ecmascript" contentStyleType="text/css" height="689px" preserveAspectRatio="none" style="width:2647px;height:689px;background:#FFFFFF;" version="1.1" viewBox="0 0 2647 689" width="2647px" zoomAndPan="magnify"><defs><filter height="300%" id="fs3jrvn8ii0t6" width="300%" x="-1" y="-1"><feGaussianBlur result="blurOut" stdDeviation="2.0"/><feColorMatrix in="blurOut" result="blurOut2" type="matrix" values="0 0 0 0 0 0 0 0 0 0 0 0 0 0 0 0 0 0 .4 0"/><feOffset dx="4.0" dy="4.0" in="blurOut2" result="blurOut3"/><feBlend in="SourceGraphic" in2="blurOut3" mode="normal"/></filter></defs><g><rect fill="#DDDDDD" height="677.7188" style="stroke:#A80036;stroke-width:1.0;" width="705.5" x="333" y="6"/><text fill="#000000" font-family="sans-serif" font-size="13" font-weight="bold" lengthAdjust="spacing" textLength="48" x="661.75" y="18.0669">Macan</text><rect fill="#ADD8E6" height="677.7188" style="stroke:#A80036;stroke-width:1.0;" width="1529.5" x="1111.5" y="6"/><text fill="#000000" font-family="sans-serif" font-size="13" font-weight="bold" lengthAdjust="spacing" textLength="47" x="1852.75" y="18.0669">Beetle</text><rect fill="#FFFFFF" filter="url(#fs3jrvn8ii0t6)" height="490.125" style="stroke:#A80036;stroke-width:1.0;" width="10" x="17" y="98.2969"/><rect fill="#FFFFFF" filter="url(#fs3jrvn8ii0t6)" height="468.9922" style="stroke:#A80036;stroke-width:1.0;" width="10" x="482" y="119.4297"/><rect fill="#FFFFFF" filter="url(#fs3jrvn8ii0t6)" height="401.7266" style="stroke:#A80036;stroke-width:1.0;" width="10" x="876" y="148.5625"/><rect fill="#FFFFFF" filter="url(#fs3jrvn8ii0t6)" height="343.4609" style="stroke:#A80036;stroke-width:1.0;" width="10" x="1270" y="177.6953"/><rect fill="#FFFFFF" filter="url(#fs3jrvn8ii0t6)" height="285.1953" style="stroke:#A80036;stroke-width:1.0;" width="10" x="1604" y="206.8281"/><rect fill="#FFFFFF" filter="url(#fs3jrvn8ii0t6)" height="29.1328" style="stroke:#A80036;stroke-width:1.0;" width="10" x="2038" y="235.9609"/><rect fill="#FFFFFF" filter="url(#fs3jrvn8ii0t6)" height="29.1328" style="stroke:#A80036;stroke-width:1.0;" width="10" x="2258.5" y="294.2266"/><rect fill="#FFFFFF" filter="url(#fs3jrvn8ii0t6)" height="68.2656" style="stroke:#A80036;stroke-width:1.0;" width="10" x="2508.5" y="352.4922"/><line style="stroke:#A80036;stroke-width:1.0;stroke-dasharray:5.0,5.0;" x1="22" x2="22" y1="88.2969" y2="597.4219"/><line style="stroke:#A80036;stroke-width:1.0;stroke-dasharray:5.0,5.0;" x1="487" x2="487" y1="88.2969" y2="597.4219"/><line style="stroke:#A80036;stroke-width:1.0;stroke-dasharray:5.0,5.0;" x1="880.5" x2="880.5" y1="88.2969" y2="597.4219"/><line style="stroke:#A80036;stroke-width:1.0;stroke-dasharray:5.0,5.0;" x1="1274.5" x2="1274.5" y1="88.2969" y2="597.4219"/><line style="stroke:#A80036;stroke-width:1.0;stroke-dasharray:5.0,5.0;" x1="1608.5" x2="1608.5" y1="88.2969" y2="597.4219"/><line style="stroke:#A80036;stroke-width:1.0;stroke-dasharray:5.0,5.0;" x1="2043" x2="2043" y1="88.2969" y2="597.4219"/><line style="stroke:#A80036;stroke-width:1.0;stroke-dasharray:5.0,5.0;" x1="2263" x2="2263" y1="88.2969" y2="597.4219"/><line style="stroke:#A80036;stroke-width:1.0;stroke-dasharray:5.0,5.0;" x1="2513" x2="2513" y1="88.2969" y2="597.4219"/><text fill="#000000" font-family="sans-serif" font-size="14" lengthAdjust="spacing" textLength="28" x="5" y="84.9951">用户</text><ellipse cx="22" cy="15" fill="#FEFECE" filter="url(#fs3jrvn8ii0t6)" rx="8" ry="8" style="stroke:#A80036;stroke-width:2.0;"/><path d="M22,23 L22,50 M9,31 L35,31 M22,50 L9,65 M22,50 L35,65 " fill="none" filter="url(#fs3jrvn8ii0t6)" style="stroke:#A80036;stroke-width:2.0;"/><text fill="#000000" font-family="sans-serif" font-size="14" lengthAdjust="spacing" textLength="28" x="5" y="609.417">用户</text><ellipse cx="22" cy="622.7188" fill="#FEFECE" filter="url(#fs3jrvn8ii0t6)" rx="8" ry="8" style="stroke:#A80036;stroke-width:2.0;"/><path d="M22,630.7188 L22,657.7188 M9,638.7188 L35,638.7188 M22,657.7188 L9,672.7188 M22,657.7188 L35,672.7188 " fill="none" filter="url(#fs3jrvn8ii0t6)" style="stroke:#A80036;stroke-width:2.0;"/><rect fill="#FEFECE" filter="url(#fs3jrvn8ii0t6)" height="30.2969" style="stroke:#A80036;stroke-width:1.5;" width="296" x="337" y="53"/><text fill="#000000" font-family="sans-serif" font-size="14" lengthAdjust="spacing" textLength="282" x="344" y="72.9951">CommercialOpportunityRemindController</text><rect fill="#FEFECE" filter="url(#fs3jrvn8ii0t6)" height="30.2969" style="stroke:#A80036;stroke-width:1.5;" width="296" x="337" y="596.4219"/><text fill="#000000" font-family="sans-serif" font-size="14" lengthAdjust="spacing" textLength="282" x="344" y="616.417">CommercialOpportunityRemindController</text><rect fill="#FEFECE" filter="url(#fs3jrvn8ii0t6)" height="30.2969" style="stroke:#A80036;stroke-width:1.5;" width="303" x="727.5" y="53"/><text fill="#000000" font-family="sans-serif" font-size="14" lengthAdjust="spacing" textLength="289" x="734.5" y="72.9951">CommercialOpportunityRemindReadCaller</text><rect fill="#FEFECE" filter="url(#fs3jrvn8ii0t6)" height="30.2969" style="stroke:#A80036;stroke-width:1.5;" width="303" x="727.5" y="596.4219"/><text fill="#000000" font-family="sans-serif" font-size="14" lengthAdjust="spacing" textLength="289" x="734.5" y="616.417">CommercialOpportunityRemindReadCaller</text><rect fill="#FEFECE" filter="url(#fs3jrvn8ii0t6)" height="30.2969" style="stroke:#A80036;stroke-width:1.5;" width="315" x="1115.5" y="53"/><text fill="#000000" font-family="sans-serif" font-size="14" lengthAdjust="spacing" textLength="301" x="1122.5" y="72.9951">CommercialOpportunityRemindReadFacade</text><rect fill="#FEFECE" filter="url(#fs3jrvn8ii0t6)" height="30.2969" style="stroke:#A80036;stroke-width:1.5;" width="315" x="1115.5" y="596.4219"/><text fill="#000000" font-family="sans-serif" font-size="14" lengthAdjust="spacing" textLength="301" x="1122.5" y="616.417">CommercialOpportunityRemindReadFacade</text><rect fill="#FEFECE" filter="url(#fs3jrvn8ii0t6)" height="30.2969" style="stroke:#A80036;stroke-width:1.5;" width="325" x="1444.5" y="53"/><text fill="#000000" font-family="sans-serif" font-size="14" lengthAdjust="spacing" textLength="311" x="1451.5" y="72.9951">CommercialOpportunityRemindReadManager</text><rect fill="#FEFECE" filter="url(#fs3jrvn8ii0t6)" height="30.2969" style="stroke:#A80036;stroke-width:1.5;" width="325" x="1444.5" y="596.4219"/><text fill="#000000" font-family="sans-serif" font-size="14" lengthAdjust="spacing" textLength="311" x="1451.5" y="616.417">CommercialOpportunityRemindReadManager</text><rect fill="#FEFECE" filter="url(#fs3jrvn8ii0t6)" height="30.2969" style="stroke:#A80036;stroke-width:1.5;" width="184" x="1949" y="53"/><text fill="#000000" font-family="sans-serif" font-size="14" lengthAdjust="spacing" textLength="170" x="1956" y="72.9951">RemindRuleReadService</text><rect fill="#FEFECE" filter="url(#fs3jrvn8ii0t6)" height="30.2969" style="stroke:#A80036;stroke-width:1.5;" width="184" x="1949" y="596.4219"/><text fill="#000000" font-family="sans-serif" font-size="14" lengthAdjust="spacing" textLength="170" x="1956" y="616.417">RemindRuleReadService</text><rect fill="#FEFECE" filter="url(#fs3jrvn8ii0t6)" height="30.2969" style="stroke:#A80036;stroke-width:1.5;" width="229" x="2147" y="53"/><text fill="#000000" font-family="sans-serif" font-size="14" lengthAdjust="spacing" textLength="215" x="2154" y="72.9951">CarNextServiceInfoReadService</text><rect fill="#FEFECE" filter="url(#fs3jrvn8ii0t6)" height="30.2969" style="stroke:#A80036;stroke-width:1.5;" width="229" x="2147" y="596.4219"/><text fill="#000000" font-family="sans-serif" font-size="14" lengthAdjust="spacing" textLength="215" x="2154" y="616.417">CarNextServiceInfoReadService</text><rect fill="#FEFECE" filter="url(#fs3jrvn8ii0t6)" height="30.2969" style="stroke:#A80036;stroke-width:1.5;" width="243" x="2390" y="53"/><text fill="#000000" font-family="sans-serif" font-size="14" lengthAdjust="spacing" textLength="229" x="2397" y="72.9951">ServiceRemindBillBizReadService</text><rect fill="#FEFECE" filter="url(#fs3jrvn8ii0t6)" height="30.2969" style="stroke:#A80036;stroke-width:1.5;" width="243" x="2390" y="596.4219"/><text fill="#000000" font-family="sans-serif" font-size="14" lengthAdjust="spacing" textLength="229" x="2397" y="616.417">ServiceRemindBillBizReadService</text><rect fill="#FFFFFF" filter="url(#fs3jrvn8ii0t6)" height="490.125" style="stroke:#A80036;stroke-width:1.0;" width="10" x="17" y="98.2969"/><rect fill="#FFFFFF" filter="url(#fs3jrvn8ii0t6)" height="468.9922" style="stroke:#A80036;stroke-width:1.0;" width="10" x="482" y="119.4297"/><rect fill="#FFFFFF" filter="url(#fs3jrvn8ii0t6)" height="401.7266" style="stroke:#A80036;stroke-width:1.0;" width="10" x="876" y="148.5625"/><rect fill="#FFFFFF" filter="url(#fs3jrvn8ii0t6)" height="343.4609" style="stroke:#A80036;stroke-width:1.0;" width="10" x="1270" y="177.6953"/><rect fill="#FFFFFF" filter="url(#fs3jrvn8ii0t6)" height="285.1953" style="stroke:#A80036;stroke-width:1.0;" width="10" x="1604" y="206.8281"/><rect fill="#FFFFFF" filter="url(#fs3jrvn8ii0t6)" height="29.1328" style="stroke:#A80036;stroke-width:1.0;" width="10" x="2038" y="235.9609"/><rect fill="#FFFFFF" filter="url(#fs3jrvn8ii0t6)" height="29.1328" style="stroke:#A80036;stroke-width:1.0;" width="10" x="2258.5" y="294.2266"/><rect fill="#FFFFFF" filter="url(#fs3jrvn8ii0t6)" height="68.2656" style="stroke:#A80036;stroke-width:1.0;" width="10" x="2508.5" y="352.4922"/><polygon fill="#A80036" points="470,115.4297,480,119.4297,470,123.4297,474,119.4297" style="stroke:#A80036;stroke-width:1.0;"/><line style="stroke:#A80036;stroke-width:1.0;" x1="27" x2="476" y1="119.4297" y2="119.4297"/><text fill="#000000" font-family="sans-serif" font-size="13" font-weight="bold" lengthAdjust="spacing" textLength="9" x="34" y="114.3638">1</text><text fill="#000000" font-family="sans-serif" font-size="13" lengthAdjust="spacing" textLength="423" x="47" y="114.3638">/macan/commercial/opportunity/remind/listCarNextServiceByCarId</text><polygon fill="#A80036" points="864,144.5625,874,148.5625,864,152.5625,868,148.5625" style="stroke:#A80036;stroke-width:1.0;"/><line style="stroke:#A80036;stroke-width:1.0;" x1="492" x2="870" y1="148.5625" y2="148.5625"/><text fill="#000000" font-family="sans-serif" font-size="13" font-weight="bold" lengthAdjust="spacing" textLength="9" x="499" y="143.4966">2</text><text fill="#000000" font-family="sans-serif" font-size="13" lengthAdjust="spacing" textLength="352" x="512" y="143.4966">listCarNextServiceByCarId 查询车辆下次服务信息商机列表</text><polygon fill="#A80036" points="1258,173.6953,1268,177.6953,1258,181.6953,1262,177.6953" style="stroke:#A80036;stroke-width:1.0;"/><line style="stroke:#A80036;stroke-width:1.0;" x1="886" x2="1264" y1="177.6953" y2="177.6953"/><text fill="#000000" font-family="sans-serif" font-size="13" font-weight="bold" lengthAdjust="spacing" textLength="9" x="893" y="172.6294">3</text><text fill="#000000" font-family="sans-serif" font-size="13" lengthAdjust="spacing" textLength="352" x="906" y="172.6294">listCarNextServiceByCarId 查询车辆下次服务信息商机列表</text><polygon fill="#A80036" points="1592,202.8281,1602,206.8281,1592,210.8281,1596,206.8281" style="stroke:#A80036;stroke-width:1.0;"/><line style="stroke:#A80036;stroke-width:1.0;" x1="886" x2="1598" y1="206.8281" y2="206.8281"/><text fill="#000000" font-family="sans-serif" font-size="13" font-weight="bold" lengthAdjust="spacing" textLength="9" x="893" y="201.7622">4</text><text fill="#000000" font-family="sans-serif" font-size="13" lengthAdjust="spacing" textLength="352" x="906" y="201.7622">listCarNextServiceByCarId 查询车辆下次服务信息商机列表</text><polygon fill="#A80036" points="2026,231.9609,2036,235.9609,2026,239.9609,2030,235.9609" style="stroke:#A80036;stroke-width:1.0;"/><line style="stroke:#A80036;stroke-width:1.0;" x1="1614" x2="2032" y1="235.9609" y2="235.9609"/><text fill="#000000" font-family="sans-serif" font-size="13" font-weight="bold" lengthAdjust="spacing" textLength="9" x="1621" y="230.895">5</text><text fill="#000000" font-family="sans-serif" font-size="13" lengthAdjust="spacing" textLength="392" x="1634" y="230.895">queryServiceRemindRuleList 查询公司下所有开启的服务提醒规则</text><polygon fill="#A80036" points="1625,261.0938,1615,265.0938,1625,269.0938,1621,265.0938" style="stroke:#A80036;stroke-width:1.0;"/><line style="stroke:#A80036;stroke-width:1.0;" x1="1619" x2="2042" y1="265.0938" y2="265.0938"/><text fill="#000000" font-family="sans-serif" font-size="13" font-weight="bold" lengthAdjust="spacing" textLength="9" x="1631" y="260.0278">6</text><text fill="#000000" font-family="sans-serif" font-size="13" lengthAdjust="spacing" textLength="182" x="1644" y="260.0278">公司下所有开启的服务提醒规则</text><polygon fill="#A80036" points="2246.5,290.2266,2256.5,294.2266,2246.5,298.2266,2250.5,294.2266" style="stroke:#A80036;stroke-width:1.0;"/><line style="stroke:#A80036;stroke-width:1.0;" x1="1614" x2="2252.5" y1="294.2266" y2="294.2266"/><text fill="#000000" font-family="sans-serif" font-size="13" font-weight="bold" lengthAdjust="spacing" textLength="9" x="1621" y="289.1606">7</text><text fill="#000000" font-family="sans-serif" font-size="13" lengthAdjust="spacing" textLength="504" x="1634" y="289.1606">queryListByCarIdAndRuleIdList 根据车辆id和服务提醒规则id列表查询下次服务日信息</text><polygon fill="#A80036" points="1625,319.3594,1615,323.3594,1625,327.3594,1621,323.3594" style="stroke:#A80036;stroke-width:1.0;"/><line style="stroke:#A80036;stroke-width:1.0;" x1="1619" x2="2262.5" y1="323.3594" y2="323.3594"/><text fill="#000000" font-family="sans-serif" font-size="13" font-weight="bold" lengthAdjust="spacing" textLength="9" x="1631" y="318.2935">8</text><text fill="#000000" font-family="sans-serif" font-size="13" lengthAdjust="spacing" textLength="91" x="1644" y="318.2935">下次服务日信息</text><polygon fill="#A80036" points="2496.5,348.4922,2506.5,352.4922,2496.5,356.4922,2500.5,352.4922" style="stroke:#A80036;stroke-width:1.0;"/><line style="stroke:#A80036;stroke-width:1.0;" x1="1614" x2="2502.5" y1="352.4922" y2="352.4922"/><text fill="#000000" font-family="sans-serif" font-size="13" font-weight="bold" lengthAdjust="spacing" textLength="9" x="1621" y="347.4263">9</text><text fill="#000000" font-family="sans-serif" font-size="13" lengthAdjust="spacing" textLength="409" x="1634" y="347.4263">queryServiceRemindBillList 查询当前车辆的未完成的服务提醒单列表</text><path d="M2092,365.4922 L2092,390.4922 L2499,390.4922 L2499,375.4922 L2489,365.4922 L2092,365.4922 " fill="#FBFB77" filter="url(#fs3jrvn8ii0t6)" style="stroke:#A80036;stroke-width:1.0;"/><path d="M2489,365.4922 L2489,375.4922 L2499,375.4922 L2489,365.4922 " fill="#FBFB77" style="stroke:#A80036;stroke-width:1.0;"/><text fill="#000000" font-family="sans-serif" font-size="13" lengthAdjust="spacing" textLength="386" x="2098" y="382.5591">底层查询数据库：remind_bill和remind_bill_ext_service关联查询</text><polygon fill="#A80036" points="1625,416.7578,1615,420.7578,1625,424.7578,1621,420.7578" style="stroke:#A80036;stroke-width:1.0;"/><line style="stroke:#A80036;stroke-width:1.0;" x1="1619" x2="2512.5" y1="420.7578" y2="420.7578"/><text fill="#000000" font-family="sans-serif" font-size="13" font-weight="bold" lengthAdjust="spacing" textLength="18" x="1631" y="415.6919">10</text><text fill="#000000" font-family="sans-serif" font-size="13" lengthAdjust="spacing" textLength="208" x="1653" y="415.6919">当前车辆的未完成的服务提醒单列表</text><line style="stroke:#A80036;stroke-width:1.0;" x1="1614" x2="1656" y1="449.8906" y2="449.8906"/><line style="stroke:#A80036;stroke-width:1.0;" x1="1656" x2="1656" y1="449.8906" y2="462.8906"/><line style="stroke:#A80036;stroke-width:1.0;" x1="1615" x2="1656" y1="462.8906" y2="462.8906"/><polygon fill="#A80036" points="1625,458.8906,1615,462.8906,1625,466.8906,1621,462.8906" style="stroke:#A80036;stroke-width:1.0;"/><text fill="#000000" font-family="sans-serif" font-size="13" font-weight="bold" lengthAdjust="spacing" textLength="18" x="1621" y="444.8247">11</text><text fill="#000000" font-family="sans-serif" font-size="13" lengthAdjust="spacing" textLength="104" x="1643" y="444.8247">车辆商机组装排序</text><polygon fill="#A80036" points="1291,488.0234,1281,492.0234,1291,496.0234,1287,492.0234" style="stroke:#A80036;stroke-width:1.0;"/><line style="stroke:#A80036;stroke-width:1.0;" x1="1285" x2="1608" y1="492.0234" y2="492.0234"/><text fill="#000000" font-family="sans-serif" font-size="13" font-weight="bold" lengthAdjust="spacing" textLength="18" x="1297" y="486.9575">12</text><text fill="#000000" font-family="sans-serif" font-size="13" lengthAdjust="spacing" textLength="104" x="1319" y="486.9575">返回车辆商机列表</text><polygon fill="#A80036" points="897,517.1563,887,521.1563,897,525.1563,893,521.1563" style="stroke:#A80036;stroke-width:1.0;"/><line style="stroke:#A80036;stroke-width:1.0;" x1="891" x2="1274" y1="521.1563" y2="521.1563"/><text fill="#000000" font-family="sans-serif" font-size="13" font-weight="bold" lengthAdjust="spacing" textLength="18" x="903" y="516.0903">13</text><text fill="#000000" font-family="sans-serif" font-size="13" lengthAdjust="spacing" textLength="104" x="925" y="516.0903">返回车辆商机列表</text><polygon fill="#A80036" points="503,546.2891,493,550.2891,503,554.2891,499,550.2891" style="stroke:#A80036;stroke-width:1.0;"/><line style="stroke:#A80036;stroke-width:1.0;" x1="497" x2="880" y1="550.2891" y2="550.2891"/><text fill="#000000" font-family="sans-serif" font-size="13" font-weight="bold" lengthAdjust="spacing" textLength="18" x="509" y="545.2231">14</text><text fill="#000000" font-family="sans-serif" font-size="13" lengthAdjust="spacing" textLength="104" x="531" y="545.2231">返回车辆商机列表</text><polygon fill="#A80036" points="38,575.4219,28,579.4219,38,583.4219,34,579.4219" style="stroke:#A80036;stroke-width:1.0;"/><line style="stroke:#A80036;stroke-width:1.0;" x1="32" x2="481" y1="579.4219" y2="579.4219"/><text fill="#000000" font-family="sans-serif" font-size="13" font-weight="bold" lengthAdjust="spacing" textLength="18" x="44" y="574.356">15</text><text fill="#000000" font-family="sans-serif" font-size="13" lengthAdjust="spacing" textLength="0" x="70" y="574.356"/></g></svg>