<?xml version="1.0" encoding="UTF-8" standalone="no"?><svg xmlns="http://www.w3.org/2000/svg" xmlns:xlink="http://www.w3.org/1999/xlink" contentScriptType="application/ecmascript" contentStyleType="text/css" height="361px" preserveAspectRatio="none" style="width:542px;height:361px;background:#FFFFFF;" version="1.1" viewBox="0 0 542 361" width="542px" zoomAndPan="magnify"><defs><filter height="300%" id="f1f9im5orvqkl4" width="300%" x="-1" y="-1"><feGaussianBlur result="blurOut" stdDeviation="2.0"/><feColorMatrix in="blurOut" result="blurOut2" type="matrix" values="0 0 0 0 0 0 0 0 0 0 0 0 0 0 0 0 0 0 .4 0"/><feOffset dx="4.0" dy="4.0" in="blurOut2" result="blurOut3"/><feBlend in="SourceGraphic" in2="blurOut3" mode="normal"/></filter></defs><g><rect codeLine="2" fill="#FEFECE" filter="url(#f1f9im5orvqkl4)" height="60.8047" id="Observer" style="stroke:#A80036;stroke-width:1.5;" width="88" x="342.5" y="166"/><ellipse cx="357.5" cy="182" fill="#B4A7E5" rx="11" ry="11" style="stroke:#A80036;stroke-width:1.0;"/><path d="M353.4219,177.7656 L353.4219,175.6094 L360.8125,175.6094 L360.8125,177.7656 L358.3438,177.7656 L358.3438,185.8438 L360.8125,185.8438 L360.8125,188 L353.4219,188 L353.4219,185.8438 L355.8906,185.8438 L355.8906,177.7656 L353.4219,177.7656 Z " fill="#000000"/><text fill="#000000" font-family="sans-serif" font-size="12" font-style="italic" lengthAdjust="spacing" textLength="56" x="371.5" y="186.1543">Observer</text><line style="stroke:#A80036;stroke-width:1.5;" x1="343.5" x2="429.5" y1="198" y2="198"/><line style="stroke:#A80036;stroke-width:1.5;" x1="343.5" x2="429.5" y1="206" y2="206"/><ellipse cx="353.5" cy="217" fill="#84BE84" rx="3" ry="3" style="stroke:#038048;stroke-width:1.0;"/><text fill="#000000" font-family="sans-serif" font-size="11" lengthAdjust="spacing" textLength="47" x="362.5" y="220.2104">update()</text><rect codeLine="5" fill="#FEFECE" filter="url(#f1f9im5orvqkl4)" height="99.2188" id="Subject" style="stroke:#A80036;stroke-width:1.5;" width="212" x="135.5" y="7"/><ellipse cx="213.75" cy="23" fill="#A9DCDF" rx="11" ry="11" style="stroke:#A80036;stroke-width:1.0;"/><path d="M213.8594,18.3438 L212.7031,23.4219 L215.0313,23.4219 L213.8594,18.3438 Z M212.375,16.1094 L215.3594,16.1094 L218.7188,28.5 L216.2656,28.5 L215.5,25.4375 L212.2188,25.4375 L211.4688,28.5 L209.0313,28.5 L212.375,16.1094 Z " fill="#000000"/><text fill="#000000" font-family="sans-serif" font-size="12" font-style="italic" lengthAdjust="spacing" textLength="47" x="234.25" y="27.1543">Subject</text><line style="stroke:#A80036;stroke-width:1.5;" x1="136.5" x2="346.5" y1="39" y2="39"/><polygon fill="none" points="146.5,45,150.5,49,146.5,53,142.5,49" style="stroke:#B38D22;stroke-width:1.0;"/><text fill="#000000" font-family="sans-serif" font-size="11" lengthAdjust="spacing" textLength="153" x="155.5" y="53.2104">List&lt;Observer&gt; observers</text><line style="stroke:#A80036;stroke-width:1.5;" x1="136.5" x2="346.5" y1="59.8047" y2="59.8047"/><ellipse cx="146.5" cy="70.8047" fill="#84BE84" rx="3" ry="3" style="stroke:#038048;stroke-width:1.0;"/><text fill="#000000" font-family="sans-serif" font-size="11" lengthAdjust="spacing" textLength="164" x="155.5" y="74.0151">void add(Observer observer)</text><ellipse cx="146.5" cy="83.6094" fill="#84BE84" rx="3" ry="3" style="stroke:#038048;stroke-width:1.0;"/><text fill="#000000" font-family="sans-serif" font-size="11" lengthAdjust="spacing" textLength="186" x="155.5" y="86.8198">void remove(Observer observer)</text><text fill="#000000" font-family="sans-serif" font-size="11" font-style="italic" lengthAdjust="spacing" textLength="119" x="155.5" y="99.6245">void notifyObserver()</text><rect codeLine="11" fill="#FEFECE" filter="url(#f1f9im5orvqkl4)" height="60.8047" id="ConcreteObserver1" style="stroke:#A80036;stroke-width:1.5;" width="153" x="187" y="287"/><ellipse cx="202" cy="303" fill="#ADD1B2" rx="11" ry="11" style="stroke:#A80036;stroke-width:1.0;"/><path d="M204.9688,308.6406 Q204.3906,308.9375 203.75,309.0859 Q203.1094,309.2344 202.4063,309.2344 Q199.9063,309.2344 198.5859,307.5859 Q197.2656,305.9375 197.2656,302.8125 Q197.2656,299.6875 198.5859,298.0313 Q199.9063,296.375 202.4063,296.375 Q203.1094,296.375 203.7578,296.5313 Q204.4063,296.6875 204.9688,296.9844 L204.9688,299.7031 Q204.3438,299.125 203.75,298.8516 Q203.1563,298.5781 202.5313,298.5781 Q201.1875,298.5781 200.5,299.6484 Q199.8125,300.7188 199.8125,302.8125 Q199.8125,304.9063 200.5,305.9766 Q201.1875,307.0469 202.5313,307.0469 Q203.1563,307.0469 203.75,306.7734 Q204.3438,306.5 204.9688,305.9219 L204.9688,308.6406 Z " fill="#000000"/><text fill="#000000" font-family="sans-serif" font-size="12" lengthAdjust="spacing" textLength="121" x="216" y="307.1543">ConcreteObserver1</text><line style="stroke:#A80036;stroke-width:1.5;" x1="188" x2="339" y1="319" y2="319"/><line style="stroke:#A80036;stroke-width:1.5;" x1="188" x2="339" y1="327" y2="327"/><ellipse cx="198" cy="338" fill="#84BE84" rx="3" ry="3" style="stroke:#038048;stroke-width:1.0;"/><text fill="#000000" font-family="sans-serif" font-size="11" lengthAdjust="spacing" textLength="47" x="207" y="341.2104">charge()</text><rect codeLine="14" fill="#FEFECE" filter="url(#f1f9im5orvqkl4)" height="60.8047" id="ConcreteObserver2" style="stroke:#A80036;stroke-width:1.5;" width="153" x="375" y="287"/><ellipse cx="390" cy="303" fill="#ADD1B2" rx="11" ry="11" style="stroke:#A80036;stroke-width:1.0;"/><path d="M392.9688,308.6406 Q392.3906,308.9375 391.75,309.0859 Q391.1094,309.2344 390.4063,309.2344 Q387.9063,309.2344 386.5859,307.5859 Q385.2656,305.9375 385.2656,302.8125 Q385.2656,299.6875 386.5859,298.0313 Q387.9063,296.375 390.4063,296.375 Q391.1094,296.375 391.7578,296.5313 Q392.4063,296.6875 392.9688,296.9844 L392.9688,299.7031 Q392.3438,299.125 391.75,298.8516 Q391.1563,298.5781 390.5313,298.5781 Q389.1875,298.5781 388.5,299.6484 Q387.8125,300.7188 387.8125,302.8125 Q387.8125,304.9063 388.5,305.9766 Q389.1875,307.0469 390.5313,307.0469 Q391.1563,307.0469 391.75,306.7734 Q392.3438,306.5 392.9688,305.9219 L392.9688,308.6406 Z " fill="#000000"/><text fill="#000000" font-family="sans-serif" font-size="12" lengthAdjust="spacing" textLength="121" x="404" y="307.1543">ConcreteObserver2</text><line style="stroke:#A80036;stroke-width:1.5;" x1="376" x2="527" y1="319" y2="319"/><line style="stroke:#A80036;stroke-width:1.5;" x1="376" x2="527" y1="327" y2="327"/><ellipse cx="386" cy="338" fill="#84BE84" rx="3" ry="3" style="stroke:#038048;stroke-width:1.0;"/><text fill="#000000" font-family="sans-serif" font-size="11" lengthAdjust="spacing" textLength="47" x="395" y="341.2104">charge()</text><rect codeLine="17" fill="#FEFECE" filter="url(#f1f9im5orvqkl4)" height="60.8047" id="ConcreteSubject" style="stroke:#A80036;stroke-width:1.5;" width="145" x="7" y="287"/><ellipse cx="26.05" cy="303" fill="#ADD1B2" rx="11" ry="11" style="stroke:#A80036;stroke-width:1.0;"/><path d="M29.0188,308.6406 Q28.4406,308.9375 27.8,309.0859 Q27.1594,309.2344 26.4563,309.2344 Q23.9563,309.2344 22.6359,307.5859 Q21.3156,305.9375 21.3156,302.8125 Q21.3156,299.6875 22.6359,298.0313 Q23.9563,296.375 26.4563,296.375 Q27.1594,296.375 27.8078,296.5313 Q28.4563,296.6875 29.0188,296.9844 L29.0188,299.7031 Q28.3938,299.125 27.8,298.8516 Q27.2063,298.5781 26.5813,298.5781 Q25.2375,298.5781 24.55,299.6484 Q23.8625,300.7188 23.8625,302.8125 Q23.8625,304.9063 24.55,305.9766 Q25.2375,307.0469 26.5813,307.0469 Q27.2063,307.0469 27.8,306.7734 Q28.3938,306.5 29.0188,305.9219 L29.0188,308.6406 Z " fill="#000000"/><text fill="#000000" font-family="sans-serif" font-size="12" lengthAdjust="spacing" textLength="104" x="40.95" y="307.1543">ConcreteSubject</text><line style="stroke:#A80036;stroke-width:1.5;" x1="8" x2="151" y1="319" y2="319"/><line style="stroke:#A80036;stroke-width:1.5;" x1="8" x2="151" y1="327" y2="327"/><ellipse cx="18" cy="338" fill="#84BE84" rx="3" ry="3" style="stroke:#038048;stroke-width:1.0;"/><text fill="#000000" font-family="sans-serif" font-size="11" lengthAdjust="spacing" textLength="119" x="27" y="341.2104">void notifyObserver()</text><rect codeLine="20" fill="#FEFECE" filter="url(#f1f9im5orvqkl4)" height="60.8047" id="ObserverDemo" style="stroke:#A80036;stroke-width:1.5;" width="124" x="183.5" y="166"/><ellipse cx="198.5" cy="182" fill="#ADD1B2" rx="11" ry="11" style="stroke:#A80036;stroke-width:1.0;"/><path d="M201.4688,187.6406 Q200.8906,187.9375 200.25,188.0859 Q199.6094,188.2344 198.9063,188.2344 Q196.4063,188.2344 195.0859,186.5859 Q193.7656,184.9375 193.7656,181.8125 Q193.7656,178.6875 195.0859,177.0313 Q196.4063,175.375 198.9063,175.375 Q199.6094,175.375 200.2578,175.5313 Q200.9063,175.6875 201.4688,175.9844 L201.4688,178.7031 Q200.8438,178.125 200.25,177.8516 Q199.6563,177.5781 199.0313,177.5781 Q197.6875,177.5781 197,178.6484 Q196.3125,179.7188 196.3125,181.8125 Q196.3125,183.9063 197,184.9766 Q197.6875,186.0469 199.0313,186.0469 Q199.6563,186.0469 200.25,185.7734 Q200.8438,185.5 201.4688,184.9219 L201.4688,187.6406 Z " fill="#000000"/><text fill="#000000" font-family="sans-serif" font-size="12" lengthAdjust="spacing" textLength="92" x="212.5" y="186.1543">ObserverDemo</text><line style="stroke:#A80036;stroke-width:1.5;" x1="184.5" x2="306.5" y1="198" y2="198"/><line style="stroke:#A80036;stroke-width:1.5;" x1="184.5" x2="306.5" y1="206" y2="206"/><ellipse cx="194.5" cy="217" fill="#84BE84" rx="3" ry="3" style="stroke:#038048;stroke-width:1.0;"/><text fill="#000000" font-family="sans-serif" font-size="11" lengthAdjust="spacing" textLength="36" x="203.5" y="220.2104">main()</text><path codeLine="23" d="M341.1771,241.086 C325.6568,256.3538 308.6569,273.0774 294.5282,286.9764 " fill="none" id="Observer-backto-ConcreteObserver1" style="stroke:#A80036;stroke-width:1.0;stroke-dasharray:7.0,7.0;"/><polygon fill="none" points="336.2953,236.069,355.4619,227.0334,346.1133,246.0493,336.2953,236.069" style="stroke:#A80036;stroke-width:1.0;"/><path codeLine="24" d="M412.4951,244.8909 C420.1244,259.0932 428.2524,274.2237 435.103,286.9764 " fill="none" id="Observer-backto-ConcreteObserver2" style="stroke:#A80036;stroke-width:1.0;stroke-dasharray:7.0,7.0;"/><polygon fill="none" points="406.2004,247.9648,402.9022,227.0334,418.5335,241.3395,406.2004,247.9648" style="stroke:#A80036;stroke-width:1.0;"/><path codeLine="25" d="M194.8427,122.814 C185.2593,136.9319 175.3885,151.8512 166.5,166 C140.6849,207.0928 113.1543,255.9993 96.1366,286.9005 " fill="none" id="Subject-backto-ConcreteSubject" style="stroke:#A80036;stroke-width:1.0;"/><polygon fill="none" points="189.2217,118.6335,206.3045,106.0964,200.7685,126.5501,189.2217,118.6335" style="stroke:#A80036;stroke-width:1.0;"/><path codeLine="26" d="M302.7966,115.683 C320.5985,132.871 339.3239,150.9507 354.5389,165.641 " fill="none" id="Subject-backto-Observer" style="stroke:#A80036;stroke-width:1.0;"/><polygon fill="#FFFFFF" points="293.0298,106.253,294.5679,113.2982,301.6627,114.5881,300.1246,107.5429,293.0298,106.253" style="stroke:#A80036;stroke-width:1.0;"/><text fill="#000000" font-family="sans-serif" font-size="13" lengthAdjust="spacing" textLength="8" x="291.7137" y="126.3651">1</text><text fill="#000000" font-family="sans-serif" font-size="13" lengthAdjust="spacing" textLength="36" x="308.2344" y="154.8302">many</text><path codeLine="28" d="M203.6112,227.0334 C179.823,244.373 150.0073,266.1061 125.5619,283.9248 " fill="none" id="ObserverDemo-to-ConcreteSubject" style="stroke:#A80036;stroke-width:1.0;stroke-dasharray:7.0,7.0;"/><polygon fill="#A80036" points="121.3754,286.9764,131.0045,284.9074,125.4159,284.0312,126.2921,278.4426,121.3754,286.9764" style="stroke:#A80036;stroke-width:1.0;"/><path codeLine="29" d="M250.0422,227.0334 C252.515,243.6565 255.5886,264.3175 258.1738,281.6964 " fill="none" id="ObserverDemo-to-ConcreteObserver1" style="stroke:#A80036;stroke-width:1.0;stroke-dasharray:7.0,7.0;"/><polygon fill="#A80036" points="258.9593,286.9764,261.5915,277.4858,258.2236,282.0308,253.6786,278.6629,258.9593,286.9764" style="stroke:#A80036;stroke-width:1.0;"/><path codeLine="30" d="M297.4825,227.0334 C327.2467,244.5163 364.6151,266.4657 395.0896,284.3658 " fill="none" id="ObserverDemo-to-ConcreteObserver2" style="stroke:#A80036;stroke-width:1.0;stroke-dasharray:7.0,7.0;"/><polygon fill="#A80036" points="399.5341,286.9764,393.7998,278.9691,395.2228,284.444,389.7479,285.8671,399.5341,286.9764" style="stroke:#A80036;stroke-width:1.0;"/></g></svg>