<?xml version="1.0" encoding="UTF-8" standalone="no"?><svg xmlns="http://www.w3.org/2000/svg" xmlns:xlink="http://www.w3.org/1999/xlink" contentStyleType="text/css" height="707px" preserveAspectRatio="none" style="width:1167px;height:707px;background:#FFFFFF;" version="1.1" viewBox="0 0 1167 707" width="1167px" zoomAndPan="magnify"><defs/><g><rect fill="#FFFFFF" height="526.7344" style="stroke:#181818;stroke-width:1.0;" width="10" x="26.5" y="91.2969"/><rect fill="#FFFFFF" height="505.6016" style="stroke:#181818;stroke-width:1.0;" width="10" x="200" y="112.4297"/><rect fill="#FFFFFF" height="446.3359" style="stroke:#181818;stroke-width:1.0;" width="10" x="467.5" y="141.5625"/><rect fill="#FFFFFF" height="29.1328" style="stroke:#181818;stroke-width:1.0;" width="10" x="854.5" y="170.6953"/><rect fill="#FFFFFF" height="29.1328" style="stroke:#181818;stroke-width:1.0;" width="10" x="1047.5" y="297.0313"/><rect fill="#FFFFFF" height="29.1328" style="stroke:#181818;stroke-width:1.0;" width="10" x="1047.5" y="355.2969"/><rect fill="none" height="366.0703" style="stroke:#000000;stroke-width:1.5;" width="1112" x="48" y="214.8281"/><rect fill="none" height="90.2031" style="stroke:#000000;stroke-width:1.5;" width="545" x="58" y="483.6953"/><line style="stroke:#181818;stroke-width:0.5;stroke-dasharray:5.0,5.0;" x1="31" x2="31" y1="81.2969" y2="627.0313"/><line style="stroke:#181818;stroke-width:0.5;stroke-dasharray:5.0,5.0;" x1="205" x2="205" y1="81.2969" y2="627.0313"/><line style="stroke:#181818;stroke-width:0.5;stroke-dasharray:5.0,5.0;" x1="472" x2="472" y1="81.2969" y2="627.0313"/><line style="stroke:#181818;stroke-width:0.5;stroke-dasharray:5.0,5.0;" x1="859" x2="859" y1="81.2969" y2="627.0313"/><line style="stroke:#181818;stroke-width:0.5;stroke-dasharray:5.0,5.0;" x1="1052" x2="1052" y1="81.2969" y2="627.0313"/><text fill="#000000" font-family="sans-serif" font-size="14" lengthAdjust="spacing" textLength="47" x="5" y="77.9951">Dubbo</text><ellipse cx="31.5" cy="13.5" fill="#E2E2F0" rx="8" ry="8" style="stroke:#181818;stroke-width:0.5;"/><path d="M31.5,21.5 L31.5,48.5 M18.5,29.5 L44.5,29.5 M31.5,48.5 L18.5,63.5 M31.5,48.5 L44.5,63.5 " fill="none" style="stroke:#181818;stroke-width:0.5;"/><text fill="#000000" font-family="sans-serif" font-size="14" lengthAdjust="spacing" textLength="47" x="5" y="639.0264">Dubbo</text><ellipse cx="31.5" cy="650.8281" fill="#E2E2F0" rx="8" ry="8" style="stroke:#181818;stroke-width:0.5;"/><path d="M31.5,658.8281 L31.5,685.8281 M18.5,666.8281 L44.5,666.8281 M31.5,685.8281 L18.5,700.8281 M31.5,685.8281 L44.5,700.8281 " fill="none" style="stroke:#181818;stroke-width:0.5;"/><rect fill="#E2E2F0" height="30.2969" rx="2.5" ry="2.5" style="stroke:#181818;stroke-width:0.5;" width="274" x="68" y="50"/><text fill="#000000" font-family="sans-serif" font-size="14" lengthAdjust="spacing" textLength="260" x="75" y="69.9951">SpuPurchaseLimitCheckConsumerApi</text><rect fill="#E2E2F0" height="30.2969" rx="2.5" ry="2.5" style="stroke:#181818;stroke-width:0.5;" width="274" x="68" y="626.0313"/><text fill="#000000" font-family="sans-serif" font-size="14" lengthAdjust="spacing" textLength="260" x="75" y="646.0264">SpuPurchaseLimitCheckConsumerApi</text><rect fill="#E2E2F0" height="30.2969" rx="2.5" ry="2.5" style="stroke:#181818;stroke-width:0.5;" width="241" x="352" y="50"/><text fill="#000000" font-family="sans-serif" font-size="14" lengthAdjust="spacing" textLength="227" x="359" y="69.9951">SpuPurchaseLimitCheckManager</text><rect fill="#E2E2F0" height="30.2969" rx="2.5" ry="2.5" style="stroke:#181818;stroke-width:0.5;" width="241" x="352" y="626.0313"/><text fill="#000000" font-family="sans-serif" font-size="14" lengthAdjust="spacing" textLength="227" x="359" y="646.0264">SpuPurchaseLimitCheckManager</text><rect fill="#E2E2F0" height="30.2969" rx="2.5" ry="2.5" style="stroke:#181818;stroke-width:0.5;" width="171" x="774" y="50"/><text fill="#000000" font-family="sans-serif" font-size="14" lengthAdjust="spacing" textLength="157" x="781" y="69.9951">GoodsInfoReadService</text><rect fill="#E2E2F0" height="30.2969" rx="2.5" ry="2.5" style="stroke:#181818;stroke-width:0.5;" width="171" x="774" y="626.0313"/><text fill="#000000" font-family="sans-serif" font-size="14" lengthAdjust="spacing" textLength="157" x="781" y="646.0264">GoodsInfoReadService</text><rect fill="#E2E2F0" height="30.2969" rx="2.5" ry="2.5" style="stroke:#181818;stroke-width:0.5;" width="195" x="955" y="50"/><text fill="#000000" font-family="sans-serif" font-size="14" lengthAdjust="spacing" textLength="181" x="962" y="69.9951">GoodsSellLogReadService</text><rect fill="#E2E2F0" height="30.2969" rx="2.5" ry="2.5" style="stroke:#181818;stroke-width:0.5;" width="195" x="955" y="626.0313"/><text fill="#000000" font-family="sans-serif" font-size="14" lengthAdjust="spacing" textLength="181" x="962" y="646.0264">GoodsSellLogReadService</text><rect fill="#FFFFFF" height="526.7344" style="stroke:#181818;stroke-width:1.0;" width="10" x="26.5" y="91.2969"/><rect fill="#FFFFFF" height="505.6016" style="stroke:#181818;stroke-width:1.0;" width="10" x="200" y="112.4297"/><rect fill="#FFFFFF" height="446.3359" style="stroke:#181818;stroke-width:1.0;" width="10" x="467.5" y="141.5625"/><rect fill="#FFFFFF" height="29.1328" style="stroke:#181818;stroke-width:1.0;" width="10" x="854.5" y="170.6953"/><rect fill="#FFFFFF" height="29.1328" style="stroke:#181818;stroke-width:1.0;" width="10" x="1047.5" y="297.0313"/><rect fill="#FFFFFF" height="29.1328" style="stroke:#181818;stroke-width:1.0;" width="10" x="1047.5" y="355.2969"/><polygon fill="#181818" points="188,108.4297,198,112.4297,188,116.4297,192,112.4297" style="stroke:#181818;stroke-width:1.0;"/><line style="stroke:#181818;stroke-width:1.0;" x1="36.5" x2="194" y1="112.4297" y2="112.4297"/><text fill="#000000" font-family="sans-serif" font-size="13" font-weight="bold" lengthAdjust="spacing" textLength="9" x="43.5" y="107.3638">1</text><text fill="#000000" font-family="sans-serif" font-size="13" lengthAdjust="spacing" textLength="127" x="56.5" y="107.3638">checkPurchaseLimit</text><polygon fill="#181818" points="455.5,137.5625,465.5,141.5625,455.5,145.5625,459.5,141.5625" style="stroke:#181818;stroke-width:1.0;"/><line style="stroke:#181818;stroke-width:1.0;" x1="210" x2="461.5" y1="141.5625" y2="141.5625"/><text fill="#000000" font-family="sans-serif" font-size="13" font-weight="bold" lengthAdjust="spacing" textLength="9" x="217" y="136.4966">2</text><text fill="#000000" font-family="sans-serif" font-size="13" lengthAdjust="spacing" textLength="127" x="230" y="136.4966">checkPurchaseLimit</text><polygon fill="#181818" points="842.5,166.6953,852.5,170.6953,842.5,174.6953,846.5,170.6953" style="stroke:#181818;stroke-width:1.0;"/><line style="stroke:#181818;stroke-width:1.0;" x1="477.5" x2="848.5" y1="170.6953" y2="170.6953"/><text fill="#000000" font-family="sans-serif" font-size="13" font-weight="bold" lengthAdjust="spacing" textLength="9" x="484.5" y="165.6294">3</text><text fill="#000000" font-family="sans-serif" font-size="13" lengthAdjust="spacing" textLength="196" x="497.5" y="165.6294">queryBySpuId 查询商品限购数量</text><polygon fill="#181818" points="488.5,195.8281,478.5,199.8281,488.5,203.8281,484.5,199.8281" style="stroke:#181818;stroke-width:1.0;"/><line style="stroke:#181818;stroke-width:1.0;" x1="482.5" x2="858.5" y1="199.8281" y2="199.8281"/><text fill="#000000" font-family="sans-serif" font-size="13" font-weight="bold" lengthAdjust="spacing" textLength="9" x="494.5" y="194.7622">4</text><text fill="#000000" font-family="sans-serif" font-size="13" lengthAdjust="spacing" textLength="78" x="507.5" y="194.7622">商品限购数量</text><path d="M48,214.8281 L112,214.8281 L112,221.9609 L102,231.9609 L48,231.9609 L48,214.8281 " fill="#EEEEEE" style="stroke:#000000;stroke-width:1.5;"/><rect fill="none" height="366.0703" style="stroke:#000000;stroke-width:1.5;" width="1112" x="48" y="214.8281"/><text fill="#000000" font-family="sans-serif" font-size="13" font-weight="bold" lengthAdjust="spacing" textLength="19" x="63" y="227.895">alt</text><text fill="#000000" font-family="sans-serif" font-size="11" font-weight="bold" lengthAdjust="spacing" textLength="65" x="127" y="227.0386">[如果不限购]</text><polygon fill="#181818" points="221,249.0938,211,253.0938,221,257.0938,217,253.0938" style="stroke:#181818;stroke-width:1.0;"/><line style="stroke:#181818;stroke-width:1.0;" x1="215" x2="466.5" y1="253.0938" y2="253.0938"/><text fill="#000000" font-family="sans-serif" font-size="13" font-weight="bold" lengthAdjust="spacing" textLength="9" x="227" y="248.0278">5</text><text fill="#000000" font-family="sans-serif" font-size="13" lengthAdjust="spacing" textLength="52" x="240" y="248.0278">校验通过</text><line style="stroke:#000000;stroke-width:1.0;stroke-dasharray:2.0,2.0;" x1="48" x2="1160" y1="262.0938" y2="262.0938"/><text fill="#000000" font-family="sans-serif" font-size="11" font-weight="bold" lengthAdjust="spacing" textLength="54" x="53" y="272.3042">[如果限购]</text><polygon fill="#181818" points="1035.5,293.0313,1045.5,297.0313,1035.5,301.0313,1039.5,297.0313" style="stroke:#181818;stroke-width:1.0;"/><line style="stroke:#181818;stroke-width:1.0;" x1="477.5" x2="1041.5" y1="297.0313" y2="297.0313"/><text fill="#000000" font-family="sans-serif" font-size="13" font-weight="bold" lengthAdjust="spacing" textLength="9" x="484.5" y="291.9653">6</text><text fill="#000000" font-family="sans-serif" font-size="13" lengthAdjust="spacing" textLength="404" x="497.5" y="291.9653">countLockBySpuIdAndUserId 根据商品id和用户id获取锁定库存总数</text><polygon fill="#181818" points="488.5,322.1641,478.5,326.1641,488.5,330.1641,484.5,326.1641" style="stroke:#181818;stroke-width:1.0;"/><line style="stroke:#181818;stroke-width:1.0;" x1="482.5" x2="1051.5" y1="326.1641" y2="326.1641"/><text fill="#000000" font-family="sans-serif" font-size="13" font-weight="bold" lengthAdjust="spacing" textLength="9" x="494.5" y="321.0981">7</text><text fill="#000000" font-family="sans-serif" font-size="13" lengthAdjust="spacing" textLength="78" x="507.5" y="321.0981">锁定库存总数</text><polygon fill="#181818" points="1035.5,351.2969,1045.5,355.2969,1035.5,359.2969,1039.5,355.2969" style="stroke:#181818;stroke-width:1.0;"/><line style="stroke:#181818;stroke-width:1.0;" x1="477.5" x2="1041.5" y1="355.2969" y2="355.2969"/><text fill="#000000" font-family="sans-serif" font-size="13" font-weight="bold" lengthAdjust="spacing" textLength="9" x="484.5" y="350.231">8</text><text fill="#000000" font-family="sans-serif" font-size="13" lengthAdjust="spacing" textLength="425" x="497.5" y="350.231">countReleaseBySpuIdAndUserId 根据商品id和用户id获取释放库存总数</text><polygon fill="#181818" points="488.5,380.4297,478.5,384.4297,488.5,388.4297,484.5,384.4297" style="stroke:#181818;stroke-width:1.0;"/><line style="stroke:#181818;stroke-width:1.0;" x1="482.5" x2="1051.5" y1="384.4297" y2="384.4297"/><text fill="#000000" font-family="sans-serif" font-size="13" font-weight="bold" lengthAdjust="spacing" textLength="9" x="494.5" y="379.3638">9</text><text fill="#000000" font-family="sans-serif" font-size="13" lengthAdjust="spacing" textLength="78" x="507.5" y="379.3638">释放库存总数</text><line style="stroke:#181818;stroke-width:1.0;" x1="477.5" x2="519.5" y1="413.5625" y2="413.5625"/><line style="stroke:#181818;stroke-width:1.0;" x1="519.5" x2="519.5" y1="413.5625" y2="426.5625"/><line style="stroke:#181818;stroke-width:1.0;" x1="478.5" x2="519.5" y1="426.5625" y2="426.5625"/><polygon fill="#181818" points="488.5,422.5625,478.5,426.5625,488.5,430.5625,484.5,426.5625" style="stroke:#181818;stroke-width:1.0;"/><text fill="#000000" font-family="sans-serif" font-size="13" font-weight="bold" lengthAdjust="spacing" textLength="18" x="484.5" y="408.4966">10</text><text fill="#000000" font-family="sans-serif" font-size="13" lengthAdjust="spacing" textLength="341" x="506.5" y="408.4966">计算当前用户已下单商品数量=锁定库存总数-释放库存总数</text><line style="stroke:#181818;stroke-width:1.0;" x1="477.5" x2="519.5" y1="455.6953" y2="455.6953"/><line style="stroke:#181818;stroke-width:1.0;" x1="519.5" x2="519.5" y1="455.6953" y2="468.6953"/><line style="stroke:#181818;stroke-width:1.0;" x1="478.5" x2="519.5" y1="468.6953" y2="468.6953"/><polygon fill="#181818" points="488.5,464.6953,478.5,468.6953,488.5,472.6953,484.5,468.6953" style="stroke:#181818;stroke-width:1.0;"/><text fill="#000000" font-family="sans-serif" font-size="13" font-weight="bold" lengthAdjust="spacing" textLength="18" x="484.5" y="450.6294">11</text><text fill="#000000" font-family="sans-serif" font-size="13" lengthAdjust="spacing" textLength="260" x="506.5" y="450.6294">对比商品限购数量与当前用户已下单商品数量</text><path d="M58,483.6953 L122,483.6953 L122,490.8281 L112,500.8281 L58,500.8281 L58,483.6953 " fill="#EEEEEE" style="stroke:#000000;stroke-width:1.5;"/><rect fill="none" height="90.2031" style="stroke:#000000;stroke-width:1.5;" width="545" x="58" y="483.6953"/><text fill="#000000" font-family="sans-serif" font-size="13" font-weight="bold" lengthAdjust="spacing" textLength="19" x="73" y="496.7622">alt</text><text fill="#000000" font-family="sans-serif" font-size="11" font-weight="bold" lengthAdjust="spacing" textLength="109" x="137" y="495.9058">[如果未达到限购数量]</text><polygon fill="#181818" points="221,517.9609,211,521.9609,221,525.9609,217,521.9609" style="stroke:#181818;stroke-width:1.0;"/><line style="stroke:#181818;stroke-width:1.0;" x1="215" x2="466.5" y1="521.9609" y2="521.9609"/><text fill="#000000" font-family="sans-serif" font-size="13" font-weight="bold" lengthAdjust="spacing" textLength="18" x="227" y="516.895">12</text><text fill="#000000" font-family="sans-serif" font-size="13" lengthAdjust="spacing" textLength="52" x="249" y="516.895">校验通过</text><line style="stroke:#000000;stroke-width:1.0;stroke-dasharray:2.0,2.0;" x1="58" x2="603" y1="530.9609" y2="530.9609"/><text fill="#000000" font-family="sans-serif" font-size="11" font-weight="bold" lengthAdjust="spacing" textLength="98" x="63" y="541.1714">[如果达到限购数量]</text><polygon fill="#181818" points="221,561.8984,211,565.8984,221,569.8984,217,565.8984" style="stroke:#181818;stroke-width:1.0;"/><line style="stroke:#181818;stroke-width:1.0;" x1="215" x2="466.5" y1="565.8984" y2="565.8984"/><text fill="#000000" font-family="sans-serif" font-size="13" font-weight="bold" lengthAdjust="spacing" textLength="18" x="227" y="560.8325">13</text><text fill="#000000" font-family="sans-serif" font-size="13" lengthAdjust="spacing" textLength="65" x="249" y="560.8325">校验未通过</text><polygon fill="#181818" points="47.5,605.0313,37.5,609.0313,47.5,613.0313,43.5,609.0313" style="stroke:#181818;stroke-width:1.0;"/><line style="stroke:#181818;stroke-width:1.0;stroke-dasharray:2.0,2.0;" x1="41.5" x2="199" y1="609.0313" y2="609.0313"/><text fill="#000000" font-family="sans-serif" font-size="13" font-weight="bold" lengthAdjust="spacing" textLength="18" x="53.5" y="603.9653">14</text><text fill="#000000" font-family="sans-serif" font-size="13" lengthAdjust="spacing" textLength="4" x="75.5" y="603.9653"> </text></g></svg>