<?xml version="1.0" encoding="UTF-8" standalone="no"?><svg xmlns="http://www.w3.org/2000/svg" xmlns:xlink="http://www.w3.org/1999/xlink" contentStyleType="text/css" height="202px" preserveAspectRatio="none" style="width:1046px;height:202px;background:#FFFFFF;" version="1.1" viewBox="0 0 1046 202" width="1046px" zoomAndPan="magnify"><defs/><g><g id="elem_RemindBill"><rect codeLine="2" fill="#F1F1F1" height="64.2969" id="RemindBill" rx="2.5" ry="2.5" style="stroke:#181818;stroke-width:0.5;" width="110" x="457" y="7"/><ellipse cx="474.7" cy="23" fill="#ADD1B2" rx="11" ry="11" style="stroke:#181818;stroke-width:1.0;"/><path d="M477.6688,28.6406 Q477.0906,28.9375 476.45,29.0781 Q475.8094,29.2344 475.1063,29.2344 Q472.6063,29.2344 471.2781,27.5938 Q469.9656,25.9375 469.9656,22.8125 Q469.9656,19.6875 471.2781,18.0313 Q472.6063,16.375 475.1063,16.375 Q475.8094,16.375 476.45,16.5313 Q477.1063,16.6875 477.6688,16.9844 L477.6688,19.7031 Q477.0438,19.125 476.45,18.8594 Q475.8563,18.5781 475.2313,18.5781 Q473.8875,18.5781 473.2,19.6563 Q472.5125,20.7188 472.5125,22.8125 Q472.5125,24.9063 473.2,25.9844 Q473.8875,27.0469 475.2313,27.0469 Q475.8563,27.0469 476.45,26.7813 Q477.0438,26.5 477.6688,25.9219 L477.6688,28.6406 Z " fill="#000000"/><text fill="#000000" font-family="sans-serif" font-size="14" lengthAdjust="spacing" textLength="72" x="489.3" y="27.8467">RemindBill</text><line style="stroke:#181818;stroke-width:0.5;" x1="458" x2="566" y1="39" y2="39"/><text fill="#000000" font-family="sans-serif" font-size="14" lengthAdjust="spacing" textLength="98" x="463" y="55.9951">提醒单基础信息</text><line style="stroke:#181818;stroke-width:0.5;" x1="458" x2="566" y1="63.2969" y2="63.2969"/></g><g id="elem_RemindBillService"><rect codeLine="5" fill="#F1F1F1" height="64.2969" id="RemindBillService" rx="2.5" ry="2.5" style="stroke:#181818;stroke-width:0.5;" width="154" x="7" y="131"/><ellipse cx="22" cy="147" fill="#ADD1B2" rx="11" ry="11" style="stroke:#181818;stroke-width:1.0;"/><path d="M24.9688,152.6406 Q24.3906,152.9375 23.75,153.0781 Q23.1094,153.2344 22.4063,153.2344 Q19.9063,153.2344 18.5781,151.5938 Q17.2656,149.9375 17.2656,146.8125 Q17.2656,143.6875 18.5781,142.0313 Q19.9063,140.375 22.4063,140.375 Q23.1094,140.375 23.75,140.5313 Q24.4063,140.6875 24.9688,140.9844 L24.9688,143.7031 Q24.3438,143.125 23.75,142.8594 Q23.1563,142.5781 22.5313,142.5781 Q21.1875,142.5781 20.5,143.6563 Q19.8125,144.7188 19.8125,146.8125 Q19.8125,148.9063 20.5,149.9844 Q21.1875,151.0469 22.5313,151.0469 Q23.1563,151.0469 23.75,150.7813 Q24.3438,150.5 24.9688,149.9219 L24.9688,152.6406 Z " fill="#000000"/><text fill="#000000" font-family="sans-serif" font-size="14" lengthAdjust="spacing" textLength="122" x="36" y="151.8467">RemindBillService</text><line style="stroke:#181818;stroke-width:0.5;" x1="8" x2="160" y1="163" y2="163"/><text fill="#000000" font-family="sans-serif" font-size="14" lengthAdjust="spacing" textLength="70" x="13" y="179.9951">服务提醒单</text><line style="stroke:#181818;stroke-width:0.5;" x1="8" x2="160" y1="187.2969" y2="187.2969"/></g><g id="elem_RemindBillInsurance"><rect codeLine="8" fill="#F1F1F1" height="64.2969" id="RemindBillInsurance" rx="2.5" ry="2.5" style="stroke:#181818;stroke-width:0.5;" width="172" x="196" y="131"/><ellipse cx="211" cy="147" fill="#ADD1B2" rx="11" ry="11" style="stroke:#181818;stroke-width:1.0;"/><path d="M213.9688,152.6406 Q213.3906,152.9375 212.75,153.0781 Q212.1094,153.2344 211.4063,153.2344 Q208.9063,153.2344 207.5781,151.5938 Q206.2656,149.9375 206.2656,146.8125 Q206.2656,143.6875 207.5781,142.0313 Q208.9063,140.375 211.4063,140.375 Q212.1094,140.375 212.75,140.5313 Q213.4063,140.6875 213.9688,140.9844 L213.9688,143.7031 Q213.3438,143.125 212.75,142.8594 Q212.1563,142.5781 211.5313,142.5781 Q210.1875,142.5781 209.5,143.6563 Q208.8125,144.7188 208.8125,146.8125 Q208.8125,148.9063 209.5,149.9844 Q210.1875,151.0469 211.5313,151.0469 Q212.1563,151.0469 212.75,150.7813 Q213.3438,150.5 213.9688,149.9219 L213.9688,152.6406 Z " fill="#000000"/><text fill="#000000" font-family="sans-serif" font-size="14" lengthAdjust="spacing" textLength="140" x="225" y="151.8467">RemindBillInsurance</text><line style="stroke:#181818;stroke-width:0.5;" x1="197" x2="367" y1="163" y2="163"/><text fill="#000000" font-family="sans-serif" font-size="14" lengthAdjust="spacing" textLength="70" x="202" y="179.9951">保险提醒单</text><line style="stroke:#181818;stroke-width:0.5;" x1="197" x2="367" y1="187.2969" y2="187.2969"/></g><g id="elem_RemindBillCarAnnualCheck"><rect codeLine="11" fill="#F1F1F1" height="64.2969" id="RemindBillCarAnnualCheck" rx="2.5" ry="2.5" style="stroke:#181818;stroke-width:0.5;" width="218" x="403" y="131"/><ellipse cx="418" cy="147" fill="#ADD1B2" rx="11" ry="11" style="stroke:#181818;stroke-width:1.0;"/><path d="M420.9688,152.6406 Q420.3906,152.9375 419.75,153.0781 Q419.1094,153.2344 418.4063,153.2344 Q415.9063,153.2344 414.5781,151.5938 Q413.2656,149.9375 413.2656,146.8125 Q413.2656,143.6875 414.5781,142.0313 Q415.9063,140.375 418.4063,140.375 Q419.1094,140.375 419.75,140.5313 Q420.4063,140.6875 420.9688,140.9844 L420.9688,143.7031 Q420.3438,143.125 419.75,142.8594 Q419.1563,142.5781 418.5313,142.5781 Q417.1875,142.5781 416.5,143.6563 Q415.8125,144.7188 415.8125,146.8125 Q415.8125,148.9063 416.5,149.9844 Q417.1875,151.0469 418.5313,151.0469 Q419.1563,151.0469 419.75,150.7813 Q420.3438,150.5 420.9688,149.9219 L420.9688,152.6406 Z " fill="#000000"/><text fill="#000000" font-family="sans-serif" font-size="14" lengthAdjust="spacing" textLength="186" x="432" y="151.8467">RemindBillCarAnnualCheck</text><line style="stroke:#181818;stroke-width:0.5;" x1="404" x2="620" y1="163" y2="163"/><text fill="#000000" font-family="sans-serif" font-size="14" lengthAdjust="spacing" textLength="98" x="409" y="179.9951">车辆年检提醒单</text><line style="stroke:#181818;stroke-width:0.5;" x1="404" x2="620" y1="187.2969" y2="187.2969"/></g><g id="elem_RemindBillCardExpiry"><rect codeLine="14" fill="#F1F1F1" height="64.2969" id="RemindBillCardExpiry" rx="2.5" ry="2.5" style="stroke:#181818;stroke-width:0.5;" width="176" x="656" y="131"/><ellipse cx="671" cy="147" fill="#ADD1B2" rx="11" ry="11" style="stroke:#181818;stroke-width:1.0;"/><path d="M673.9688,152.6406 Q673.3906,152.9375 672.75,153.0781 Q672.1094,153.2344 671.4063,153.2344 Q668.9063,153.2344 667.5781,151.5938 Q666.2656,149.9375 666.2656,146.8125 Q666.2656,143.6875 667.5781,142.0313 Q668.9063,140.375 671.4063,140.375 Q672.1094,140.375 672.75,140.5313 Q673.4063,140.6875 673.9688,140.9844 L673.9688,143.7031 Q673.3438,143.125 672.75,142.8594 Q672.1563,142.5781 671.5313,142.5781 Q670.1875,142.5781 669.5,143.6563 Q668.8125,144.7188 668.8125,146.8125 Q668.8125,148.9063 669.5,149.9844 Q670.1875,151.0469 671.5313,151.0469 Q672.1563,151.0469 672.75,150.7813 Q673.3438,150.5 673.9688,149.9219 L673.9688,152.6406 Z " fill="#000000"/><text fill="#000000" font-family="sans-serif" font-size="14" lengthAdjust="spacing" textLength="144" x="685" y="151.8467">RemindBillCardExpiry</text><line style="stroke:#181818;stroke-width:0.5;" x1="657" x2="831" y1="163" y2="163"/><text fill="#000000" font-family="sans-serif" font-size="14" lengthAdjust="spacing" textLength="84" x="662" y="179.9951">卡到期提醒单</text><line style="stroke:#181818;stroke-width:0.5;" x1="657" x2="831" y1="187.2969" y2="187.2969"/></g><g id="elem_RemindBillDetection"><rect codeLine="17" fill="#F1F1F1" height="64.2969" id="RemindBillDetection" rx="2.5" ry="2.5" style="stroke:#181818;stroke-width:0.5;" width="172" x="867" y="131"/><ellipse cx="882" cy="147" fill="#ADD1B2" rx="11" ry="11" style="stroke:#181818;stroke-width:1.0;"/><path d="M884.9688,152.6406 Q884.3906,152.9375 883.75,153.0781 Q883.1094,153.2344 882.4063,153.2344 Q879.9063,153.2344 878.5781,151.5938 Q877.2656,149.9375 877.2656,146.8125 Q877.2656,143.6875 878.5781,142.0313 Q879.9063,140.375 882.4063,140.375 Q883.1094,140.375 883.75,140.5313 Q884.4063,140.6875 884.9688,140.9844 L884.9688,143.7031 Q884.3438,143.125 883.75,142.8594 Q883.1563,142.5781 882.5313,142.5781 Q881.1875,142.5781 880.5,143.6563 Q879.8125,144.7188 879.8125,146.8125 Q879.8125,148.9063 880.5,149.9844 Q881.1875,151.0469 882.5313,151.0469 Q883.1563,151.0469 883.75,150.7813 Q884.3438,150.5 884.9688,149.9219 L884.9688,152.6406 Z " fill="#000000"/><text fill="#000000" font-family="sans-serif" font-size="14" lengthAdjust="spacing" textLength="140" x="896" y="151.8467">RemindBillDetection</text><line style="stroke:#181818;stroke-width:0.5;" x1="868" x2="1038" y1="163" y2="163"/><text fill="#000000" font-family="sans-serif" font-size="14" lengthAdjust="spacing" textLength="98" x="873" y="179.9951">检测异常提醒单</text><line style="stroke:#181818;stroke-width:0.5;" x1="868" x2="1038" y1="187.2969" y2="187.2969"/></g><g id="link_RemindBill_RemindBillService"><path codeLine="20" d="M437.314,59.147 C369.413,76.84 266.594,104.3425 178,131 C172.488,132.6587 166.808,134.4141 161.1,136.2125 " fill="none" id="RemindBill-backto-RemindBillService" style="stroke:#181818;stroke-width:1.0;"/><polygon fill="none" points="435.665,52.343,456.783,54.094,439.183,65.894,435.665,52.343" style="stroke:#181818;stroke-width:1.0;"/></g><g id="link_RemindBill_RemindBillInsurance"><path codeLine="21" d="M438.896,78.777 C407.185,95.5975 370.552,115.0292 340.662,130.8838 " fill="none" id="RemindBill-backto-RemindBillInsurance" style="stroke:#181818;stroke-width:1.0;"/><polygon fill="none" points="435.961,72.41,456.909,69.222,442.521,84.778,435.961,72.41" style="stroke:#181818;stroke-width:1.0;"/></g><g id="link_RemindBill_RemindBillCarAnnualCheck"><path codeLine="22" d="M512,91.341 C512,104.8065 512,118.9163 512,130.9554 " fill="none" id="RemindBill-backto-RemindBillCarAnnualCheck" style="stroke:#181818;stroke-width:1.0;"/><polygon fill="none" points="505,91.101,512,71.101,519,91.101,505,91.101" style="stroke:#181818;stroke-width:1.0;"/></g><g id="link_RemindBill_RemindBillCardExpiry"><path codeLine="23" d="M585,78.388 C617.104,95.2701 654.326,114.8441 684.682,130.8072 " fill="none" id="RemindBill-backto-RemindBillCardExpiry" style="stroke:#181818;stroke-width:1.0;"/><polygon fill="none" points="581.719,84.571,567.275,69.067,588.235,72.18,581.719,84.571" style="stroke:#181818;stroke-width:1.0;"/></g><g id="link_RemindBill_RemindBillDetection"><path codeLine="24" d="M586.826,59.471 C655.433,77.485 759.768,105.2808 850,131 C855.477,132.5613 861.112,134.1906 866.788,135.8495 " fill="none" id="RemindBill-backto-RemindBillDetection" style="stroke:#181818;stroke-width:1.0;"/><polygon fill="none" points="584.742,66.162,567.169,54.322,588.29,52.619,584.742,66.162" style="stroke:#181818;stroke-width:1.0;"/></g></g></svg>