<?xml version="1.0" encoding="UTF-8" standalone="no"?><svg xmlns="http://www.w3.org/2000/svg" xmlns:xlink="http://www.w3.org/1999/xlink" contentScriptType="application/ecmascript" contentStyleType="text/css" height="482px" preserveAspectRatio="none" style="width:587px;height:482px;background:#FFFFFF;" version="1.1" viewBox="0 0 587 482" width="587px" zoomAndPan="magnify"><defs><filter height="300%" id="f14nuoh7ogn0x2" width="300%" x="-1" y="-1"><feGaussianBlur result="blurOut" stdDeviation="2.0"/><feColorMatrix in="blurOut" result="blurOut2" type="matrix" values="0 0 0 0 0 0 0 0 0 0 0 0 0 0 0 0 0 0 .4 0"/><feOffset dx="4.0" dy="4.0" in="blurOut2" result="blurOut3"/><feBlend in="SourceGraphic" in2="blurOut3" mode="normal"/></filter></defs><g><rect codeLine="2" fill="#FEFECE" filter="url(#f14nuoh7ogn0x2)" height="60.8047" id="TravelModeStrategy" style="stroke:#A80036;stroke-width:1.5;" width="156" x="215.4188" y="287"/><ellipse cx="230.4188" cy="303" fill="#B4A7E5" rx="11" ry="11" style="stroke:#A80036;stroke-width:1.0;"/><path d="M226.3407,298.7656 L226.3407,296.6094 L233.7313,296.6094 L233.7313,298.7656 L231.2626,298.7656 L231.2626,306.8438 L233.7313,306.8438 L233.7313,309 L226.3407,309 L226.3407,306.8438 L228.8094,306.8438 L228.8094,298.7656 L226.3407,298.7656 Z " fill="#000000"/><text fill="#000000" font-family="sans-serif" font-size="12" font-style="italic" lengthAdjust="spacing" textLength="124" x="244.4188" y="307.1543">TravelModeStrategy</text><line style="stroke:#A80036;stroke-width:1.5;" x1="216.4188" x2="370.4188" y1="319" y2="319"/><line style="stroke:#A80036;stroke-width:1.5;" x1="216.4188" x2="370.4188" y1="327" y2="327"/><ellipse cx="226.4188" cy="338" fill="#84BE84" rx="3" ry="3" style="stroke:#038048;stroke-width:1.0;"/><text fill="#000000" font-family="sans-serif" font-size="11" lengthAdjust="spacing" textLength="40" x="235.4188" y="341.2104">travel()</text><rect codeLine="5" fill="#FEFECE" filter="url(#f14nuoh7ogn0x2)" height="99.2188" id="TravelModeStrategyContext" style="stroke:#A80036;stroke-width:1.5;" width="419" x="83.9188" y="128"/><ellipse cx="203.1688" cy="144" fill="#ADD1B2" rx="11" ry="11" style="stroke:#A80036;stroke-width:1.0;"/><path d="M206.1376,149.6406 Q205.5594,149.9375 204.9188,150.0859 Q204.2782,150.2344 203.5751,150.2344 Q201.0751,150.2344 199.7547,148.5859 Q198.4344,146.9375 198.4344,143.8125 Q198.4344,140.6875 199.7547,139.0313 Q201.0751,137.375 203.5751,137.375 Q204.2782,137.375 204.9266,137.5313 Q205.5751,137.6875 206.1376,137.9844 L206.1376,140.7031 Q205.5126,140.125 204.9188,139.8516 Q204.3251,139.5781 203.7001,139.5781 Q202.3563,139.5781 201.6688,140.6484 Q200.9813,141.7188 200.9813,143.8125 Q200.9813,145.9063 201.6688,146.9766 Q202.3563,148.0469 203.7001,148.0469 Q204.3251,148.0469 204.9188,147.7734 Q205.5126,147.5 206.1376,146.9219 L206.1376,149.6406 Z " fill="#000000"/><text fill="#000000" font-family="sans-serif" font-size="12" lengthAdjust="spacing" textLength="172" x="223.6688" y="148.1543">TravelModeStrategyContext</text><line style="stroke:#A80036;stroke-width:1.5;" x1="84.9188" x2="501.9188" y1="160" y2="160"/><rect fill="none" height="6" style="stroke:#C82930;stroke-width:1.0;" width="6" x="91.9188" y="168"/><text fill="#000000" font-family="sans-serif" font-size="11" lengthAdjust="spacing" textLength="227" x="103.9188" y="174.2104">TravelModeStrategy travelModeStrategy</text><line style="stroke:#A80036;stroke-width:1.5;" x1="84.9188" x2="501.9188" y1="180.8047" y2="180.8047"/><ellipse cx="94.9188" cy="191.8047" fill="#84BE84" rx="3" ry="3" style="stroke:#038048;stroke-width:1.0;"/><text fill="#000000" font-family="sans-serif" font-size="11" lengthAdjust="spacing" textLength="256" x="103.9188" y="195.0151">TravelModeStrategy getTravelModeStrategy()</text><ellipse cx="94.9188" cy="204.6094" fill="#84BE84" rx="3" ry="3" style="stroke:#038048;stroke-width:1.0;"/><text fill="#000000" font-family="sans-serif" font-size="11" lengthAdjust="spacing" textLength="393" x="103.9188" y="207.8198">void setTravelModeStrategy(TravelModeStrategy travelModeStrategy)</text><ellipse cx="94.9188" cy="217.4141" fill="#84BE84" rx="3" ry="3" style="stroke:#038048;stroke-width:1.0;"/><text fill="#000000" font-family="sans-serif" font-size="11" lengthAdjust="spacing" textLength="67" x="103.9188" y="220.6245">void travel()</text><rect codeLine="11" fill="#FEFECE" filter="url(#f14nuoh7ogn0x2)" height="60.8047" id="CarTravelModeStrategy" style="stroke:#A80036;stroke-width:1.5;" width="177" x="84.9188" y="408"/><ellipse cx="99.9188" cy="424" fill="#ADD1B2" rx="11" ry="11" style="stroke:#A80036;stroke-width:1.0;"/><path d="M102.8876,429.6406 Q102.3094,429.9375 101.6688,430.0859 Q101.0282,430.2344 100.3251,430.2344 Q97.8251,430.2344 96.5047,428.5859 Q95.1844,426.9375 95.1844,423.8125 Q95.1844,420.6875 96.5047,419.0313 Q97.8251,417.375 100.3251,417.375 Q101.0282,417.375 101.6766,417.5313 Q102.3251,417.6875 102.8876,417.9844 L102.8876,420.7031 Q102.2626,420.125 101.6688,419.8516 Q101.0751,419.5781 100.4501,419.5781 Q99.1063,419.5781 98.4188,420.6484 Q97.7313,421.7188 97.7313,423.8125 Q97.7313,425.9063 98.4188,426.9766 Q99.1063,428.0469 100.4501,428.0469 Q101.0751,428.0469 101.6688,427.7734 Q102.2626,427.5 102.8876,426.9219 L102.8876,429.6406 Z " fill="#000000"/><text fill="#000000" font-family="sans-serif" font-size="12" lengthAdjust="spacing" textLength="145" x="113.9188" y="428.1543">CarTravelModeStrategy</text><line style="stroke:#A80036;stroke-width:1.5;" x1="85.9188" x2="260.9188" y1="440" y2="440"/><line style="stroke:#A80036;stroke-width:1.5;" x1="85.9188" x2="260.9188" y1="448" y2="448"/><ellipse cx="95.9188" cy="459" fill="#84BE84" rx="3" ry="3" style="stroke:#038048;stroke-width:1.0;"/><text fill="#000000" font-family="sans-serif" font-size="11" lengthAdjust="spacing" textLength="40" x="104.9188" y="462.2104">travel()</text><rect codeLine="14" fill="#FEFECE" filter="url(#f14nuoh7ogn0x2)" height="60.8047" id="WalkTravelModeStrategy" style="stroke:#A80036;stroke-width:1.5;" width="185" x="319.9188" y="408"/><ellipse cx="334.9188" cy="424" fill="#ADD1B2" rx="11" ry="11" style="stroke:#A80036;stroke-width:1.0;"/><path d="M337.8876,429.6406 Q337.3094,429.9375 336.6688,430.0859 Q336.0282,430.2344 335.3251,430.2344 Q332.8251,430.2344 331.5047,428.5859 Q330.1844,426.9375 330.1844,423.8125 Q330.1844,420.6875 331.5047,419.0313 Q332.8251,417.375 335.3251,417.375 Q336.0282,417.375 336.6766,417.5313 Q337.3251,417.6875 337.8876,417.9844 L337.8876,420.7031 Q337.2626,420.125 336.6688,419.8516 Q336.0751,419.5781 335.4501,419.5781 Q334.1063,419.5781 333.4188,420.6484 Q332.7313,421.7188 332.7313,423.8125 Q332.7313,425.9063 333.4188,426.9766 Q334.1063,428.0469 335.4501,428.0469 Q336.0751,428.0469 336.6688,427.7734 Q337.2626,427.5 337.8876,426.9219 L337.8876,429.6406 Z " fill="#000000"/><text fill="#000000" font-family="sans-serif" font-size="12" lengthAdjust="spacing" textLength="153" x="348.9188" y="428.1543">WalkTravelModeStrategy</text><line style="stroke:#A80036;stroke-width:1.5;" x1="320.9188" x2="503.9188" y1="440" y2="440"/><line style="stroke:#A80036;stroke-width:1.5;" x1="320.9188" x2="503.9188" y1="448" y2="448"/><ellipse cx="330.9188" cy="459" fill="#84BE84" rx="3" ry="3" style="stroke:#038048;stroke-width:1.0;"/><text fill="#000000" font-family="sans-serif" font-size="11" lengthAdjust="spacing" textLength="40" x="339.9188" y="462.2104">travel()</text><rect codeLine="17" fill="#FEFECE" filter="url(#f14nuoh7ogn0x2)" height="60.8047" id="StrategyDemo" style="stroke:#A80036;stroke-width:1.5;" width="121" x="232.9188" y="7"/><ellipse cx="247.9188" cy="23" fill="#ADD1B2" rx="11" ry="11" style="stroke:#A80036;stroke-width:1.0;"/><path d="M250.8876,28.6406 Q250.3094,28.9375 249.6688,29.0859 Q249.0282,29.2344 248.3251,29.2344 Q245.8251,29.2344 244.5047,27.5859 Q243.1844,25.9375 243.1844,22.8125 Q243.1844,19.6875 244.5047,18.0313 Q245.8251,16.375 248.3251,16.375 Q249.0282,16.375 249.6766,16.5313 Q250.3251,16.6875 250.8876,16.9844 L250.8876,19.7031 Q250.2626,19.125 249.6688,18.8516 Q249.0751,18.5781 248.4501,18.5781 Q247.1063,18.5781 246.4188,19.6484 Q245.7313,20.7188 245.7313,22.8125 Q245.7313,24.9063 246.4188,25.9766 Q247.1063,27.0469 248.4501,27.0469 Q249.0751,27.0469 249.6688,26.7734 Q250.2626,26.5 250.8876,25.9219 L250.8876,28.6406 Z " fill="#000000"/><text fill="#000000" font-family="sans-serif" font-size="12" lengthAdjust="spacing" textLength="89" x="261.9188" y="27.1543">StrategyDemo</text><line style="stroke:#A80036;stroke-width:1.5;" x1="233.9188" x2="352.9188" y1="39" y2="39"/><line style="stroke:#A80036;stroke-width:1.5;" x1="233.9188" x2="352.9188" y1="47" y2="47"/><ellipse cx="243.9188" cy="58" fill="#84BE84" rx="3" ry="3" style="stroke:#038048;stroke-width:1.0;"/><text fill="#000000" font-family="sans-serif" font-size="11" lengthAdjust="spacing" textLength="36" x="252.9188" y="61.2104">main()</text><path codeLine="20" d="M248.7325,362.5586 C233.7179,377.6984 217.3322,394.2207 203.6901,407.9764 " fill="none" id="TravelModeStrategy-backto-CarTravelModeStrategy" style="stroke:#A80036;stroke-width:1.0;stroke-dasharray:7.0,7.0;"/><polygon fill="none" points="244.0841,357.305,263.1377,348.0334,254.0246,367.1633,244.0841,357.305" style="stroke:#A80036;stroke-width:1.0;"/><path codeLine="21" d="M337.7326,362.5586 C352.6221,377.6984 368.8713,394.2207 382.3996,407.9764 " fill="none" id="TravelModeStrategy-backto-WalkTravelModeStrategy" style="stroke:#A80036;stroke-width:1.0;stroke-dasharray:7.0,7.0;"/><polygon fill="none" points="332.4805,367.2013,323.4475,348.0334,342.4621,357.3846,332.4805,367.2013" style="stroke:#A80036;stroke-width:1.0;"/><path codeLine="22" d="M293.4188,240.5155 C293.4188,256.5309 293.4188,273.0389 293.4188,286.641 " fill="none" id="TravelModeStrategyContext-backto-TravelModeStrategy" style="stroke:#A80036;stroke-width:1.0;"/><polygon fill="#FFFFFF" points="293.4188,227.253,289.4188,233.253,293.4188,239.253,297.4188,233.253,293.4188,227.253" style="stroke:#A80036;stroke-width:1.0;"/><text fill="#000000" font-family="sans-serif" font-size="13" lengthAdjust="spacing" textLength="8" x="284.8563" y="247.3651">1</text><text fill="#000000" font-family="sans-serif" font-size="13" lengthAdjust="spacing" textLength="8" x="284.5938" y="275.8302">1</text><path codeLine="24" d="M293.4188,68.2236 C293.4188,84.1891 293.4188,104.1849 293.4188,122.6921 " fill="none" id="StrategyDemo-to-TravelModeStrategyContext" style="stroke:#A80036;stroke-width:1.0;stroke-dasharray:7.0,7.0;"/><polygon fill="#A80036" points="293.4188,127.868,297.4188,118.868,293.4188,122.868,289.4188,118.868,293.4188,127.868" style="stroke:#A80036;stroke-width:1.0;"/><path codeLine="25" d="M232.7885,43.1848 C178.9938,51.8022 103.3766,73.4789 66.4188,128 C6,217.1311 92.9551,343.7352 142.7268,404.0175 " fill="none" id="StrategyDemo-to-CarTravelModeStrategy" style="stroke:#A80036;stroke-width:1.0;stroke-dasharray:7.0,7.0;"/><polygon fill="#A80036" points="145.9495,407.8912,143.2686,398.4143,142.7518,404.0474,137.1186,403.5306,145.9495,407.8912" style="stroke:#A80036;stroke-width:1.0;"/><path codeLine="26" d="M354.049,43.1848 C407.8437,51.8022 483.4609,73.4789 520.4188,128 C580.8977,217.2199 493.3698,343.7818 443.2934,404.0358 " fill="none" id="StrategyDemo-to-WalkTravelModeStrategy" style="stroke:#A80036;stroke-width:1.0;stroke-dasharray:7.0,7.0;"/><polygon fill="#A80036" points="440.0511,407.9077,448.8961,403.5757,443.2612,404.0743,442.7626,398.4395,440.0511,407.9077" style="stroke:#A80036;stroke-width:1.0;"/></g></svg>