<?xml version="1.0" encoding="UTF-8" standalone="no"?><svg xmlns="http://www.w3.org/2000/svg" xmlns:xlink="http://www.w3.org/1999/xlink" contentScriptType="application/ecmascript" contentStyleType="text/css" height="349px" preserveAspectRatio="none" style="width:617px;height:349px;background:#FFFFFF;" version="1.1" viewBox="0 0 617 349" width="617px" zoomAndPan="magnify"><defs><filter height="300%" id="f1px6urxdgdu9t" width="300%" x="-1" y="-1"><feGaussianBlur result="blurOut" stdDeviation="2.0"/><feColorMatrix in="blurOut" result="blurOut2" type="matrix" values="0 0 0 0 0 0 0 0 0 0 0 0 0 0 0 0 0 0 .4 0"/><feOffset dx="4.0" dy="4.0" in="blurOut2" result="blurOut3"/><feBlend in="SourceGraphic" in2="blurOut3" mode="normal"/></filter></defs><g><rect codeLine="1" fill="#FEFECE" filter="url(#f1px6urxdgdu9t)" height="60.8047" id="FactoryMethodDemo" style="stroke:#A80036;stroke-width:1.5;" width="161" x="135" y="13.5"/><ellipse cx="150" cy="29.5" fill="#ADD1B2" rx="11" ry="11" style="stroke:#A80036;stroke-width:1.0;"/><path d="M152.9688,35.1406 Q152.3906,35.4375 151.75,35.5859 Q151.1094,35.7344 150.4063,35.7344 Q147.9063,35.7344 146.5859,34.0859 Q145.2656,32.4375 145.2656,29.3125 Q145.2656,26.1875 146.5859,24.5313 Q147.9063,22.875 150.4063,22.875 Q151.1094,22.875 151.7578,23.0313 Q152.4063,23.1875 152.9688,23.4844 L152.9688,26.2031 Q152.3438,25.625 151.75,25.3516 Q151.1563,25.0781 150.5313,25.0781 Q149.1875,25.0781 148.5,26.1484 Q147.8125,27.2188 147.8125,29.3125 Q147.8125,31.4063 148.5,32.4766 Q149.1875,33.5469 150.5313,33.5469 Q151.1563,33.5469 151.75,33.2734 Q152.3438,33 152.9688,32.4219 L152.9688,35.1406 Z " fill="#000000"/><text fill="#000000" font-family="sans-serif" font-size="12" lengthAdjust="spacing" textLength="129" x="164" y="33.6543">FactoryMethodDemo</text><line style="stroke:#A80036;stroke-width:1.5;" x1="136" x2="295" y1="45.5" y2="45.5"/><line style="stroke:#A80036;stroke-width:1.5;" x1="136" x2="295" y1="53.5" y2="53.5"/><ellipse cx="146" cy="64.5" fill="#84BE84" rx="3" ry="3" style="stroke:#038048;stroke-width:1.0;"/><text fill="#000000" font-family="sans-serif" font-size="11" lengthAdjust="spacing" textLength="36" x="155" y="67.7104">main()</text><rect codeLine="4" fill="#FEFECE" filter="url(#f1px6urxdgdu9t)" height="73.6094" id="BenzCarFactory" style="stroke:#A80036;stroke-width:1.5;" width="130" x="158.5" y="141"/><ellipse cx="174.4" cy="157" fill="#ADD1B2" rx="11" ry="11" style="stroke:#A80036;stroke-width:1.0;"/><path d="M177.3688,162.6406 Q176.7906,162.9375 176.15,163.0859 Q175.5094,163.2344 174.8063,163.2344 Q172.3063,163.2344 170.9859,161.5859 Q169.6656,159.9375 169.6656,156.8125 Q169.6656,153.6875 170.9859,152.0313 Q172.3063,150.375 174.8063,150.375 Q175.5094,150.375 176.1578,150.5313 Q176.8063,150.6875 177.3688,150.9844 L177.3688,153.7031 Q176.7438,153.125 176.15,152.8516 Q175.5563,152.5781 174.9313,152.5781 Q173.5875,152.5781 172.9,153.6484 Q172.2125,154.7188 172.2125,156.8125 Q172.2125,158.9063 172.9,159.9766 Q173.5875,161.0469 174.9313,161.0469 Q175.5563,161.0469 176.15,160.7734 Q176.7438,160.5 177.3688,159.9219 L177.3688,162.6406 Z " fill="#000000"/><text fill="#000000" font-family="sans-serif" font-size="12" lengthAdjust="spacing" textLength="96" x="188.6" y="161.1543">BenzCarFactory</text><line style="stroke:#A80036;stroke-width:1.5;" x1="159.5" x2="287.5" y1="173" y2="173"/><line style="stroke:#A80036;stroke-width:1.5;" x1="159.5" x2="287.5" y1="181" y2="181"/><ellipse cx="169.5" cy="192" fill="#84BE84" rx="3" ry="3" style="stroke:#038048;stroke-width:1.0;"/><text fill="#000000" font-family="sans-serif" font-size="11" lengthAdjust="spacing" textLength="103" x="178.5" y="195.2104">createClassACar()</text><ellipse cx="169.5" cy="204.8047" fill="#84BE84" rx="3" ry="3" style="stroke:#038048;stroke-width:1.0;"/><text fill="#000000" font-family="sans-serif" font-size="11" lengthAdjust="spacing" textLength="104" x="178.5" y="208.0151">createClassBCar()</text><rect codeLine="8" fill="#FEFECE" filter="url(#f1px6urxdgdu9t)" height="73.6094" id="BmwCarFactory" style="stroke:#A80036;stroke-width:1.5;" width="130" x="323.5" y="141"/><ellipse cx="339.85" cy="157" fill="#ADD1B2" rx="11" ry="11" style="stroke:#A80036;stroke-width:1.0;"/><path d="M342.8188,162.6406 Q342.2406,162.9375 341.6,163.0859 Q340.9594,163.2344 340.2563,163.2344 Q337.7563,163.2344 336.4359,161.5859 Q335.1156,159.9375 335.1156,156.8125 Q335.1156,153.6875 336.4359,152.0313 Q337.7563,150.375 340.2563,150.375 Q340.9594,150.375 341.6078,150.5313 Q342.2563,150.6875 342.8188,150.9844 L342.8188,153.7031 Q342.1938,153.125 341.6,152.8516 Q341.0063,152.5781 340.3813,152.5781 Q339.0375,152.5781 338.35,153.6484 Q337.6625,154.7188 337.6625,156.8125 Q337.6625,158.9063 338.35,159.9766 Q339.0375,161.0469 340.3813,161.0469 Q341.0063,161.0469 341.6,160.7734 Q342.1938,160.5 342.8188,159.9219 L342.8188,162.6406 Z " fill="#000000"/><text fill="#000000" font-family="sans-serif" font-size="12" lengthAdjust="spacing" textLength="95" x="354.15" y="161.1543">BmwCarFactory</text><line style="stroke:#A80036;stroke-width:1.5;" x1="324.5" x2="452.5" y1="173" y2="173"/><line style="stroke:#A80036;stroke-width:1.5;" x1="324.5" x2="452.5" y1="181" y2="181"/><ellipse cx="334.5" cy="192" fill="#84BE84" rx="3" ry="3" style="stroke:#038048;stroke-width:1.0;"/><text fill="#000000" font-family="sans-serif" font-size="11" lengthAdjust="spacing" textLength="103" x="343.5" y="195.2104">createClassACar()</text><ellipse cx="334.5" cy="204.8047" fill="#84BE84" rx="3" ry="3" style="stroke:#038048;stroke-width:1.0;"/><text fill="#000000" font-family="sans-serif" font-size="11" lengthAdjust="spacing" textLength="104" x="343.5" y="208.0151">createClassBCar()</text><rect codeLine="12" fill="#FEFECE" filter="url(#f1px6urxdgdu9t)" height="60.8047" id="BenzClassACar" style="stroke:#A80036;stroke-width:1.5;" width="123" x="7" y="275"/><ellipse cx="22" cy="291" fill="#ADD1B2" rx="11" ry="11" style="stroke:#A80036;stroke-width:1.0;"/><path d="M24.9688,296.6406 Q24.3906,296.9375 23.75,297.0859 Q23.1094,297.2344 22.4063,297.2344 Q19.9063,297.2344 18.5859,295.5859 Q17.2656,293.9375 17.2656,290.8125 Q17.2656,287.6875 18.5859,286.0313 Q19.9063,284.375 22.4063,284.375 Q23.1094,284.375 23.7578,284.5313 Q24.4063,284.6875 24.9688,284.9844 L24.9688,287.7031 Q24.3438,287.125 23.75,286.8516 Q23.1563,286.5781 22.5313,286.5781 Q21.1875,286.5781 20.5,287.6484 Q19.8125,288.7188 19.8125,290.8125 Q19.8125,292.9063 20.5,293.9766 Q21.1875,295.0469 22.5313,295.0469 Q23.1563,295.0469 23.75,294.7734 Q24.3438,294.5 24.9688,293.9219 L24.9688,296.6406 Z " fill="#000000"/><text fill="#000000" font-family="sans-serif" font-size="12" lengthAdjust="spacing" textLength="91" x="36" y="295.1543">BenzClassACar</text><line style="stroke:#A80036;stroke-width:1.5;" x1="8" x2="129" y1="307" y2="307"/><line style="stroke:#A80036;stroke-width:1.5;" x1="8" x2="129" y1="315" y2="315"/><ellipse cx="18" cy="326" fill="#84BE84" rx="3" ry="3" style="stroke:#038048;stroke-width:1.0;"/><text fill="#000000" font-family="sans-serif" font-size="11" lengthAdjust="spacing" textLength="79" x="27" y="329.2104">getCarModel()</text><rect codeLine="15" fill="#FEFECE" filter="url(#f1px6urxdgdu9t)" height="60.8047" id="BenzClassBCar" style="stroke:#A80036;stroke-width:1.5;" width="123" x="323" y="275"/><ellipse cx="338" cy="291" fill="#ADD1B2" rx="11" ry="11" style="stroke:#A80036;stroke-width:1.0;"/><path d="M340.9688,296.6406 Q340.3906,296.9375 339.75,297.0859 Q339.1094,297.2344 338.4063,297.2344 Q335.9063,297.2344 334.5859,295.5859 Q333.2656,293.9375 333.2656,290.8125 Q333.2656,287.6875 334.5859,286.0313 Q335.9063,284.375 338.4063,284.375 Q339.1094,284.375 339.7578,284.5313 Q340.4063,284.6875 340.9688,284.9844 L340.9688,287.7031 Q340.3438,287.125 339.75,286.8516 Q339.1563,286.5781 338.5313,286.5781 Q337.1875,286.5781 336.5,287.6484 Q335.8125,288.7188 335.8125,290.8125 Q335.8125,292.9063 336.5,293.9766 Q337.1875,295.0469 338.5313,295.0469 Q339.1563,295.0469 339.75,294.7734 Q340.3438,294.5 340.9688,293.9219 L340.9688,296.6406 Z " fill="#000000"/><text fill="#000000" font-family="sans-serif" font-size="12" lengthAdjust="spacing" textLength="91" x="352" y="295.1543">BenzClassBCar</text><line style="stroke:#A80036;stroke-width:1.5;" x1="324" x2="445" y1="307" y2="307"/><line style="stroke:#A80036;stroke-width:1.5;" x1="324" x2="445" y1="315" y2="315"/><ellipse cx="334" cy="326" fill="#84BE84" rx="3" ry="3" style="stroke:#038048;stroke-width:1.0;"/><text fill="#000000" font-family="sans-serif" font-size="11" lengthAdjust="spacing" textLength="79" x="343" y="329.2104">getCarModel()</text><rect codeLine="18" fill="#FEFECE" filter="url(#f1px6urxdgdu9t)" height="60.8047" id="BmwClassACar" style="stroke:#A80036;stroke-width:1.5;" width="122" x="165.5" y="275"/><ellipse cx="180.5" cy="291" fill="#ADD1B2" rx="11" ry="11" style="stroke:#A80036;stroke-width:1.0;"/><path d="M183.4688,296.6406 Q182.8906,296.9375 182.25,297.0859 Q181.6094,297.2344 180.9063,297.2344 Q178.4063,297.2344 177.0859,295.5859 Q175.7656,293.9375 175.7656,290.8125 Q175.7656,287.6875 177.0859,286.0313 Q178.4063,284.375 180.9063,284.375 Q181.6094,284.375 182.2578,284.5313 Q182.9063,284.6875 183.4688,284.9844 L183.4688,287.7031 Q182.8438,287.125 182.25,286.8516 Q181.6563,286.5781 181.0313,286.5781 Q179.6875,286.5781 179,287.6484 Q178.3125,288.7188 178.3125,290.8125 Q178.3125,292.9063 179,293.9766 Q179.6875,295.0469 181.0313,295.0469 Q181.6563,295.0469 182.25,294.7734 Q182.8438,294.5 183.4688,293.9219 L183.4688,296.6406 Z " fill="#000000"/><text fill="#000000" font-family="sans-serif" font-size="12" lengthAdjust="spacing" textLength="90" x="194.5" y="295.1543">BmwClassACar</text><line style="stroke:#A80036;stroke-width:1.5;" x1="166.5" x2="286.5" y1="307" y2="307"/><line style="stroke:#A80036;stroke-width:1.5;" x1="166.5" x2="286.5" y1="315" y2="315"/><ellipse cx="176.5" cy="326" fill="#84BE84" rx="3" ry="3" style="stroke:#038048;stroke-width:1.0;"/><text fill="#000000" font-family="sans-serif" font-size="11" lengthAdjust="spacing" textLength="79" x="185.5" y="329.2104">getCarModel()</text><rect codeLine="21" fill="#FEFECE" filter="url(#f1px6urxdgdu9t)" height="60.8047" id="BmwClassBCar" style="stroke:#A80036;stroke-width:1.5;" width="122" x="481.5" y="275"/><ellipse cx="496.5" cy="291" fill="#ADD1B2" rx="11" ry="11" style="stroke:#A80036;stroke-width:1.0;"/><path d="M499.4688,296.6406 Q498.8906,296.9375 498.25,297.0859 Q497.6094,297.2344 496.9063,297.2344 Q494.4063,297.2344 493.0859,295.5859 Q491.7656,293.9375 491.7656,290.8125 Q491.7656,287.6875 493.0859,286.0313 Q494.4063,284.375 496.9063,284.375 Q497.6094,284.375 498.2578,284.5313 Q498.9063,284.6875 499.4688,284.9844 L499.4688,287.7031 Q498.8438,287.125 498.25,286.8516 Q497.6563,286.5781 497.0313,286.5781 Q495.6875,286.5781 495,287.6484 Q494.3125,288.7188 494.3125,290.8125 Q494.3125,292.9063 495,293.9766 Q495.6875,295.0469 497.0313,295.0469 Q497.6563,295.0469 498.25,294.7734 Q498.8438,294.5 499.4688,293.9219 L499.4688,296.6406 Z " fill="#000000"/><text fill="#000000" font-family="sans-serif" font-size="12" lengthAdjust="spacing" textLength="90" x="510.5" y="295.1543">BmwClassBCar</text><line style="stroke:#A80036;stroke-width:1.5;" x1="482.5" x2="602.5" y1="307" y2="307"/><line style="stroke:#A80036;stroke-width:1.5;" x1="482.5" x2="602.5" y1="315" y2="315"/><ellipse cx="492.5" cy="326" fill="#84BE84" rx="3" ry="3" style="stroke:#038048;stroke-width:1.0;"/><text fill="#000000" font-family="sans-serif" font-size="11" lengthAdjust="spacing" textLength="79" x="501.5" y="329.2104">getCarModel()</text><rect codeLine="24" fill="#FEFECE" filter="url(#f1px6urxdgdu9t)" height="73.6094" id="CarFactory" style="stroke:#A80036;stroke-width:1.5;" width="130" x="331.5" y="7"/><ellipse cx="360.45" cy="23" fill="#B4A7E5" rx="11" ry="11" style="stroke:#A80036;stroke-width:1.0;"/><path d="M356.3719,18.7656 L356.3719,16.6094 L363.7625,16.6094 L363.7625,18.7656 L361.2938,18.7656 L361.2938,26.8438 L363.7625,26.8438 L363.7625,29 L356.3719,29 L356.3719,26.8438 L358.8406,26.8438 L358.8406,18.7656 L356.3719,18.7656 Z " fill="#000000"/><text fill="#000000" font-family="sans-serif" font-size="12" font-style="italic" lengthAdjust="spacing" textLength="67" x="377.55" y="27.1543">CarFactory</text><line style="stroke:#A80036;stroke-width:1.5;" x1="332.5" x2="460.5" y1="39" y2="39"/><line style="stroke:#A80036;stroke-width:1.5;" x1="332.5" x2="460.5" y1="47" y2="47"/><ellipse cx="342.5" cy="58" fill="#84BE84" rx="3" ry="3" style="stroke:#038048;stroke-width:1.0;"/><text fill="#000000" font-family="sans-serif" font-size="11" lengthAdjust="spacing" textLength="103" x="351.5" y="61.2104">createClassACar()</text><ellipse cx="342.5" cy="70.8047" fill="#84BE84" rx="3" ry="3" style="stroke:#038048;stroke-width:1.0;"/><text fill="#000000" font-family="sans-serif" font-size="11" lengthAdjust="spacing" textLength="104" x="351.5" y="74.0151">createClassBCar()</text><rect codeLine="28" fill="#FEFECE" filter="url(#f1px6urxdgdu9t)" height="60.8047" id="ClassACar" style="stroke:#A80036;stroke-width:1.5;" width="105" x="17" y="147.5"/><ellipse cx="36.95" cy="163.5" fill="#B4A7E5" rx="11" ry="11" style="stroke:#A80036;stroke-width:1.0;"/><path d="M32.8719,159.2656 L32.8719,157.1094 L40.2625,157.1094 L40.2625,159.2656 L37.7938,159.2656 L37.7938,167.3438 L40.2625,167.3438 L40.2625,169.5 L32.8719,169.5 L32.8719,167.3438 L35.3406,167.3438 L35.3406,159.2656 L32.8719,159.2656 Z " fill="#000000"/><text fill="#000000" font-family="sans-serif" font-size="12" font-style="italic" lengthAdjust="spacing" textLength="62" x="52.05" y="167.6543">ClassACar</text><line style="stroke:#A80036;stroke-width:1.5;" x1="18" x2="121" y1="179.5" y2="179.5"/><line style="stroke:#A80036;stroke-width:1.5;" x1="18" x2="121" y1="187.5" y2="187.5"/><ellipse cx="28" cy="198.5" fill="#84BE84" rx="3" ry="3" style="stroke:#038048;stroke-width:1.0;"/><text fill="#000000" font-family="sans-serif" font-size="11" lengthAdjust="spacing" textLength="79" x="37" y="201.7104">getCarModel()</text><rect codeLine="31" fill="#FEFECE" filter="url(#f1px6urxdgdu9t)" height="60.8047" id="ClassBCar" style="stroke:#A80036;stroke-width:1.5;" width="105" x="489" y="147.5"/><ellipse cx="508.95" cy="163.5" fill="#B4A7E5" rx="11" ry="11" style="stroke:#A80036;stroke-width:1.0;"/><path d="M504.8719,159.2656 L504.8719,157.1094 L512.2625,157.1094 L512.2625,159.2656 L509.7938,159.2656 L509.7938,167.3438 L512.2625,167.3438 L512.2625,169.5 L504.8719,169.5 L504.8719,167.3438 L507.3406,167.3438 L507.3406,159.2656 L504.8719,159.2656 Z " fill="#000000"/><text fill="#000000" font-family="sans-serif" font-size="12" font-style="italic" lengthAdjust="spacing" textLength="62" x="524.05" y="167.6543">ClassBCar</text><line style="stroke:#A80036;stroke-width:1.5;" x1="490" x2="593" y1="179.5" y2="179.5"/><line style="stroke:#A80036;stroke-width:1.5;" x1="490" x2="593" y1="187.5" y2="187.5"/><ellipse cx="500" cy="198.5" fill="#84BE84" rx="3" ry="3" style="stroke:#038048;stroke-width:1.0;"/><text fill="#000000" font-family="sans-serif" font-size="11" lengthAdjust="spacing" textLength="79" x="509" y="201.7104">getCarModel()</text><path codeLine="34" d="M69.1021,228.7355 C68.9799,244.309 68.8493,260.9647 68.741,274.7679 " fill="none" id="ClassACar-backto-BenzClassACar" style="stroke:#A80036;stroke-width:1.0;stroke-dasharray:7.0,7.0;"/><polygon fill="none" points="62.1037,228.4839,69.2605,208.5394,76.1033,228.5937,62.1037,228.4839" style="stroke:#A80036;stroke-width:1.0;"/><path codeLine="35" d="M122.6847,221.1914 C144.4413,238.86 169.1035,258.8882 188.9297,274.9891 " fill="none" id="ClassACar-backto-BmwClassACar" style="stroke:#A80036;stroke-width:1.0;stroke-dasharray:7.0,7.0;"/><polygon fill="none" points="118.2179,226.5815,107.1054,208.5394,127.0436,215.7137,118.2179,226.5815" style="stroke:#A80036;stroke-width:1.0;"/><path codeLine="36" d="M488.3153,221.1914 C466.5587,238.86 441.8965,258.8882 422.0703,274.9891 " fill="none" id="ClassBCar-backto-BenzClassBCar" style="stroke:#A80036;stroke-width:1.0;stroke-dasharray:7.0,7.0;"/><polygon fill="none" points="483.9564,215.7137,503.8946,208.5394,492.7821,226.5815,483.9564,215.7137" style="stroke:#A80036;stroke-width:1.0;"/><path codeLine="37" d="M541.8979,228.7355 C542.0201,244.309 542.1507,260.9647 542.259,274.7679 " fill="none" id="ClassBCar-backto-BmwClassBCar" style="stroke:#A80036;stroke-width:1.0;stroke-dasharray:7.0,7.0;"/><polygon fill="none" points="534.8967,228.5937,541.7395,208.5394,548.8963,228.4839,534.8967,228.5937" style="stroke:#A80036;stroke-width:1.0;"/><path codeLine="38" d="M332.2599,93.7582 C312.1158,109.3611 290.2436,126.3026 271.4317,140.8737 " fill="none" id="CarFactory-backto-BenzCarFactory" style="stroke:#A80036;stroke-width:1.0;stroke-dasharray:7.0,7.0;"/><polygon fill="none" points="328.2117,88.0396,348.3099,81.3265,336.7847,99.1077,328.2117,88.0396" style="stroke:#A80036;stroke-width:1.0;"/><path codeLine="39" d="M393.0651,101.5351 C392.2695,114.8601 391.4436,128.6949 390.7165,140.8737 " fill="none" id="CarFactory-backto-BmwCarFactory" style="stroke:#A80036;stroke-width:1.0;stroke-dasharray:7.0,7.0;"/><polygon fill="none" points="386.092,100.8737,394.2716,81.3265,400.0671,101.7081,386.092,100.8737" style="stroke:#A80036;stroke-width:1.0;"/><path codeLine="41" d="M178.2509,215.221 C156.5478,233.0736 130.7378,254.3044 109.6013,271.6909 " fill="none" id="BenzCarFactory-to-BenzClassACar" style="stroke:#A80036;stroke-width:1.0;stroke-dasharray:7.0,7.0;"/><polygon fill="#A80036" points="105.7111,274.8909,115.2028,272.2625,109.5725,271.7145,110.1205,266.0842,105.7111,274.8909" style="stroke:#A80036;stroke-width:1.0;"/><path codeLine="42" d="M270.5007,215.221 C293.0439,233.0736 319.853,254.3044 341.8077,271.6909 " fill="none" id="BenzCarFactory-to-BenzClassBCar" style="stroke:#A80036;stroke-width:1.0;stroke-dasharray:7.0,7.0;"/><polygon fill="#A80036" points="345.8485,274.8909,341.2763,266.1676,341.9288,271.7867,336.3097,272.4392,345.8485,274.8909" style="stroke:#A80036;stroke-width:1.0;"/><path codeLine="43" d="M341.2074,215.221 C318.5242,233.0736 291.5485,254.3044 269.4575,271.6909 " fill="none" id="BmwCarFactory-to-BmwClassACar" style="stroke:#A80036;stroke-width:1.0;stroke-dasharray:7.0,7.0;"/><polygon fill="#A80036" points="265.3916,274.8909,274.9377,272.4677,269.3206,271.7985,269.9898,266.1814,265.3916,274.8909" style="stroke:#A80036;stroke-width:1.0;"/><path codeLine="44" d="M433.4572,215.221 C455.0202,233.0736 480.6638,254.3044 501.6639,271.6909 " fill="none" id="BmwCarFactory-to-BmwClassBCar" style="stroke:#A80036;stroke-width:1.0;stroke-dasharray:7.0,7.0;"/><polygon fill="#A80036" points="505.529,274.8909,501.1477,266.0702,501.6777,271.7022,496.0458,272.2323,505.529,274.8909" style="stroke:#A80036;stroke-width:1.0;"/><path codeLine="45" d="M217.3354,74.7423 C218.411,92.7585 219.7854,115.78 220.9634,135.5116 " fill="none" id="FactoryMethodDemo-to-BenzCarFactory" style="stroke:#A80036;stroke-width:1.0;stroke-dasharray:7.0,7.0;"/><polygon fill="#A80036" points="221.2741,140.7166,224.7303,131.4941,220.976,135.7255,216.7446,131.9711,221.2741,140.7166" style="stroke:#A80036;stroke-width:1.0;"/><path codeLine="46" d="M255.1897,74.7423 C279.3359,93.4452 310.4462,117.5421 336.5393,137.753 " fill="none" id="FactoryMethodDemo-to-BmwCarFactory" style="stroke:#A80036;stroke-width:1.0;stroke-dasharray:7.0,7.0;"/><polygon fill="#A80036" points="340.6821,140.9619,336.0161,132.2885,336.7291,137.9002,331.1174,138.6132,340.6821,140.9619" style="stroke:#A80036;stroke-width:1.0;"/></g></svg>