<?xml version="1.0" encoding="UTF-8" standalone="no"?><svg xmlns="http://www.w3.org/2000/svg" xmlns:xlink="http://www.w3.org/1999/xlink" contentScriptType="application/ecmascript" contentStyleType="text/css" height="444px" preserveAspectRatio="none" style="width:253px;height:444px;background:#FFFFFF;" version="1.1" viewBox="0 0 253 444" width="253px" zoomAndPan="magnify"><defs><filter height="300%" id="frro98inbg0xi" width="300%" x="-1" y="-1"><feGaussianBlur result="blurOut" stdDeviation="2.0"/><feColorMatrix in="blurOut" result="blurOut2" type="matrix" values="0 0 0 0 0 0 0 0 0 0 0 0 0 0 0 0 0 0 .4 0"/><feOffset dx="4.0" dy="4.0" in="blurOut2" result="blurOut3"/><feBlend in="SourceGraphic" in2="blurOut3" mode="normal"/></filter></defs><g><rect codeLine="2" fill="#FEFECE" filter="url(#frro98inbg0xi)" height="60.8047" id="CarUsb" style="stroke:#A80036;stroke-width:1.5;" width="77" x="7" y="7"/><ellipse cx="22" cy="23" fill="#B4A7E5" rx="11" ry="11" style="stroke:#A80036;stroke-width:1.0;"/><path d="M17.9219,18.7656 L17.9219,16.6094 L25.3125,16.6094 L25.3125,18.7656 L22.8438,18.7656 L22.8438,26.8438 L25.3125,26.8438 L25.3125,29 L17.9219,29 L17.9219,26.8438 L20.3906,26.8438 L20.3906,18.7656 L17.9219,18.7656 Z " fill="#000000"/><text fill="#000000" font-family="sans-serif" font-size="12" font-style="italic" lengthAdjust="spacing" textLength="45" x="36" y="27.1543">CarUsb</text><line style="stroke:#A80036;stroke-width:1.5;" x1="8" x2="83" y1="39" y2="39"/><line style="stroke:#A80036;stroke-width:1.5;" x1="8" x2="83" y1="47" y2="47"/><ellipse cx="18" cy="58" fill="#84BE84" rx="3" ry="3" style="stroke:#038048;stroke-width:1.0;"/><text fill="#000000" font-family="sans-serif" font-size="11" lengthAdjust="spacing" textLength="47" x="27" y="61.2104">charge()</text><rect codeLine="5" fill="#FEFECE" filter="url(#frro98inbg0xi)" height="60.8047" id="CarCigaretteLighter" style="stroke:#A80036;stroke-width:1.5;" width="154" x="36.5" y="249"/><ellipse cx="51.5" cy="265" fill="#ADD1B2" rx="11" ry="11" style="stroke:#A80036;stroke-width:1.0;"/><path d="M54.4688,270.6406 Q53.8906,270.9375 53.25,271.0859 Q52.6094,271.2344 51.9063,271.2344 Q49.4063,271.2344 48.0859,269.5859 Q46.7656,267.9375 46.7656,264.8125 Q46.7656,261.6875 48.0859,260.0313 Q49.4063,258.375 51.9063,258.375 Q52.6094,258.375 53.2578,258.5313 Q53.9063,258.6875 54.4688,258.9844 L54.4688,261.7031 Q53.8438,261.125 53.25,260.8516 Q52.6563,260.5781 52.0313,260.5781 Q50.6875,260.5781 50,261.6484 Q49.3125,262.7188 49.3125,264.8125 Q49.3125,266.9063 50,267.9766 Q50.6875,269.0469 52.0313,269.0469 Q52.6563,269.0469 53.25,268.7734 Q53.8438,268.5 54.4688,267.9219 L54.4688,270.6406 Z " fill="#000000"/><text fill="#000000" font-family="sans-serif" font-size="12" lengthAdjust="spacing" textLength="122" x="65.5" y="269.1543">CarCigaretteLighter</text><line style="stroke:#A80036;stroke-width:1.5;" x1="37.5" x2="189.5" y1="281" y2="281"/><line style="stroke:#A80036;stroke-width:1.5;" x1="37.5" x2="189.5" y1="289" y2="289"/><ellipse cx="47.5" cy="300" fill="#84BE84" rx="3" ry="3" style="stroke:#038048;stroke-width:1.0;"/><text fill="#000000" font-family="sans-serif" font-size="11" lengthAdjust="spacing" textLength="49" x="56.5" y="303.2104">electric()</text><rect codeLine="8" fill="#FEFECE" filter="url(#frro98inbg0xi)" height="60.8047" id="CarUsbClassAdapter" style="stroke:#A80036;stroke-width:1.5;" width="160" x="33.5" y="370"/><ellipse cx="48.5" cy="386" fill="#ADD1B2" rx="11" ry="11" style="stroke:#A80036;stroke-width:1.0;"/><path d="M51.4688,391.6406 Q50.8906,391.9375 50.25,392.0859 Q49.6094,392.2344 48.9063,392.2344 Q46.4063,392.2344 45.0859,390.5859 Q43.7656,388.9375 43.7656,385.8125 Q43.7656,382.6875 45.0859,381.0313 Q46.4063,379.375 48.9063,379.375 Q49.6094,379.375 50.2578,379.5313 Q50.9063,379.6875 51.4688,379.9844 L51.4688,382.7031 Q50.8438,382.125 50.25,381.8516 Q49.6563,381.5781 49.0313,381.5781 Q47.6875,381.5781 47,382.6484 Q46.3125,383.7188 46.3125,385.8125 Q46.3125,387.9063 47,388.9766 Q47.6875,390.0469 49.0313,390.0469 Q49.6563,390.0469 50.25,389.7734 Q50.8438,389.5 51.4688,388.9219 L51.4688,391.6406 Z " fill="#000000"/><text fill="#000000" font-family="sans-serif" font-size="12" lengthAdjust="spacing" textLength="128" x="62.5" y="390.1543">CarUsbClassAdapter</text><line style="stroke:#A80036;stroke-width:1.5;" x1="34.5" x2="192.5" y1="402" y2="402"/><line style="stroke:#A80036;stroke-width:1.5;" x1="34.5" x2="192.5" y1="410" y2="410"/><ellipse cx="44.5" cy="421" fill="#84BE84" rx="3" ry="3" style="stroke:#038048;stroke-width:1.0;"/><text fill="#000000" font-family="sans-serif" font-size="11" lengthAdjust="spacing" textLength="47" x="53.5" y="424.2104">charge()</text><rect codeLine="11" fill="#FEFECE" filter="url(#frro98inbg0xi)" height="60.8047" id="CarUsbObjectAdapter" style="stroke:#A80036;stroke-width:1.5;" width="167" x="30" y="128"/><ellipse cx="45" cy="144" fill="#ADD1B2" rx="11" ry="11" style="stroke:#A80036;stroke-width:1.0;"/><path d="M47.9688,149.6406 Q47.3906,149.9375 46.75,150.0859 Q46.1094,150.2344 45.4063,150.2344 Q42.9063,150.2344 41.5859,148.5859 Q40.2656,146.9375 40.2656,143.8125 Q40.2656,140.6875 41.5859,139.0313 Q42.9063,137.375 45.4063,137.375 Q46.1094,137.375 46.7578,137.5313 Q47.4063,137.6875 47.9688,137.9844 L47.9688,140.7031 Q47.3438,140.125 46.75,139.8516 Q46.1563,139.5781 45.5313,139.5781 Q44.1875,139.5781 43.5,140.6484 Q42.8125,141.7188 42.8125,143.8125 Q42.8125,145.9063 43.5,146.9766 Q44.1875,148.0469 45.5313,148.0469 Q46.1563,148.0469 46.75,147.7734 Q47.3438,147.5 47.9688,146.9219 L47.9688,149.6406 Z " fill="#000000"/><text fill="#000000" font-family="sans-serif" font-size="12" lengthAdjust="spacing" textLength="135" x="59" y="148.1543">CarUsbObjectAdapter</text><line style="stroke:#A80036;stroke-width:1.5;" x1="31" x2="196" y1="160" y2="160"/><line style="stroke:#A80036;stroke-width:1.5;" x1="31" x2="196" y1="168" y2="168"/><ellipse cx="41" cy="179" fill="#84BE84" rx="3" ry="3" style="stroke:#038048;stroke-width:1.0;"/><text fill="#000000" font-family="sans-serif" font-size="11" lengthAdjust="spacing" textLength="47" x="50" y="182.2104">charge()</text><rect codeLine="14" fill="#FEFECE" filter="url(#frro98inbg0xi)" height="60.8047" id="AdapterDemo" style="stroke:#A80036;stroke-width:1.5;" width="118" x="121.5" y="7"/><ellipse cx="136.5" cy="23" fill="#ADD1B2" rx="11" ry="11" style="stroke:#A80036;stroke-width:1.0;"/><path d="M139.4688,28.6406 Q138.8906,28.9375 138.25,29.0859 Q137.6094,29.2344 136.9063,29.2344 Q134.4063,29.2344 133.0859,27.5859 Q131.7656,25.9375 131.7656,22.8125 Q131.7656,19.6875 133.0859,18.0313 Q134.4063,16.375 136.9063,16.375 Q137.6094,16.375 138.2578,16.5313 Q138.9063,16.6875 139.4688,16.9844 L139.4688,19.7031 Q138.8438,19.125 138.25,18.8516 Q137.6563,18.5781 137.0313,18.5781 Q135.6875,18.5781 135,19.6484 Q134.3125,20.7188 134.3125,22.8125 Q134.3125,24.9063 135,25.9766 Q135.6875,27.0469 137.0313,27.0469 Q137.6563,27.0469 138.25,26.7734 Q138.8438,26.5 139.4688,25.9219 L139.4688,28.6406 Z " fill="#000000"/><text fill="#000000" font-family="sans-serif" font-size="12" lengthAdjust="spacing" textLength="86" x="150.5" y="27.1543">AdapterDemo</text><line style="stroke:#A80036;stroke-width:1.5;" x1="122.5" x2="238.5" y1="39" y2="39"/><line style="stroke:#A80036;stroke-width:1.5;" x1="122.5" x2="238.5" y1="47" y2="47"/><ellipse cx="132.5" cy="58" fill="#84BE84" rx="3" ry="3" style="stroke:#038048;stroke-width:1.0;"/><text fill="#000000" font-family="sans-serif" font-size="11" lengthAdjust="spacing" textLength="36" x="141.5" y="61.2104">main()</text><path codeLine="17" d="M23.9665,86.8982 C19.2329,100.0095 14.9146,114.3296 12.5,128 C6.0523,164.5038 15.0372,302.4415 18.5,310 C29.3159,333.6084 49.3376,354.137 68.2215,369.6471 " fill="none" id="CarUsb-backto-CarUsbClassAdapter" style="stroke:#A80036;stroke-width:1.0;stroke-dasharray:7.0,7.0;"/><polygon fill="none" points="17.4838,84.2549,31.2765,68.1688,30.5257,89.3451,17.4838,84.2549" style="stroke:#A80036;stroke-width:1.0;"/><path codeLine="18" d="M72.6949,85.8909 C80.6763,100.0932 89.1794,115.2237 96.3462,127.9764 " fill="none" id="CarUsb-backto-CarUsbObjectAdapter" style="stroke:#A80036;stroke-width:1.0;stroke-dasharray:7.0,7.0;"/><polygon fill="none" points="66.3553,88.8982,62.6593,68.0334,78.5601,82.0393,66.3553,88.8982" style="stroke:#A80036;stroke-width:1.0;"/><path codeLine="19" d="M113.5,330.2927 C113.5,343.7857 113.5,357.9401 113.5,369.9764 " fill="none" id="CarCigaretteLighter-backto-CarUsbClassAdapter" style="stroke:#A80036;stroke-width:1.0;"/><polygon fill="none" points="106.5001,330.0334,113.5,310.0334,120.5001,330.0334,106.5001,330.0334" style="stroke:#A80036;stroke-width:1.0;"/><path codeLine="20" d="M113.5,202.1434 C113.5,217.663 113.5,234.7908 113.5,248.9764 " fill="none" id="CarUsbObjectAdapter-backto-CarCigaretteLighter" style="stroke:#A80036;stroke-width:1.0;"/><polygon fill="#FFFFFF" points="113.5,189.0334,109.5,195.0334,113.5,201.0334,117.5,195.0334,113.5,189.0334" style="stroke:#A80036;stroke-width:1.0;"/><path codeLine="22" d="M163.5931,68.0334 C154.2299,84.9431 142.553,106.0312 132.829,123.5923 " fill="none" id="AdapterDemo-to-CarUsbObjectAdapter" style="stroke:#A80036;stroke-width:1.0;stroke-dasharray:7.0,7.0;"/><polygon fill="#A80036" points="130.4015,127.9764,138.2607,122.0406,132.8236,123.6022,131.262,118.1652,130.4015,127.9764" style="stroke:#A80036;stroke-width:1.0;"/><path codeLine="23" d="M195.152,68.1246 C202.5563,85.2971 210.7504,107.3578 214.5,128 C221.3115,165.4983 210.1347,304.2714 207.5,310 C197.3798,332.0042 179.3174,351.4138 161.7118,366.558 " fill="none" id="AdapterDemo-to-CarUsbClassAdapter" style="stroke:#A80036;stroke-width:1.0;stroke-dasharray:7.0,7.0;"/><polygon fill="#A80036" points="157.7287,369.9202,167.1863,367.1717,161.5495,366.6951,162.0261,361.0583,157.7287,369.9202" style="stroke:#A80036;stroke-width:1.0;"/></g></svg>