<?xml version="1.0" encoding="UTF-8" standalone="no"?><svg xmlns="http://www.w3.org/2000/svg" xmlns:xlink="http://www.w3.org/1999/xlink" contentScriptType="application/ecmascript" contentStyleType="text/css" height="546px" preserveAspectRatio="none" style="width:602px;height:546px;background:#FFFFFF;" version="1.1" viewBox="0 0 602 546" width="602px" zoomAndPan="magnify"><defs><filter height="300%" id="f45bralgwmb54" width="300%" x="-1" y="-1"><feGaussianBlur result="blurOut" stdDeviation="2.0"/><feColorMatrix in="blurOut" result="blurOut2" type="matrix" values="0 0 0 0 0 0 0 0 0 0 0 0 0 0 0 0 0 0 .4 0"/><feOffset dx="4.0" dy="4.0" in="blurOut2" result="blurOut3"/><feBlend in="SourceGraphic" in2="blurOut3" mode="normal"/></filter></defs><g><rect codeLine="1" fill="#FEFECE" filter="url(#f45bralgwmb54)" height="60.8047" id="BuilderDemo" style="stroke:#A80036;stroke-width:1.5;" width="111" x="322" y="7"/><ellipse cx="337" cy="23" fill="#ADD1B2" rx="11" ry="11" style="stroke:#A80036;stroke-width:1.0;"/><path d="M339.9688,28.6406 Q339.3906,28.9375 338.75,29.0859 Q338.1094,29.2344 337.4063,29.2344 Q334.9063,29.2344 333.5859,27.5859 Q332.2656,25.9375 332.2656,22.8125 Q332.2656,19.6875 333.5859,18.0313 Q334.9063,16.375 337.4063,16.375 Q338.1094,16.375 338.7578,16.5313 Q339.4063,16.6875 339.9688,16.9844 L339.9688,19.7031 Q339.3438,19.125 338.75,18.8516 Q338.1563,18.5781 337.5313,18.5781 Q336.1875,18.5781 335.5,19.6484 Q334.8125,20.7188 334.8125,22.8125 Q334.8125,24.9063 335.5,25.9766 Q336.1875,27.0469 337.5313,27.0469 Q338.1563,27.0469 338.75,26.7734 Q339.3438,26.5 339.9688,25.9219 L339.9688,28.6406 Z " fill="#000000"/><text fill="#000000" font-family="sans-serif" font-size="12" lengthAdjust="spacing" textLength="79" x="351" y="27.1543">BuilderDemo</text><line style="stroke:#A80036;stroke-width:1.5;" x1="323" x2="432" y1="39" y2="39"/><line style="stroke:#A80036;stroke-width:1.5;" x1="323" x2="432" y1="47" y2="47"/><ellipse cx="333" cy="58" fill="#84BE84" rx="3" ry="3" style="stroke:#038048;stroke-width:1.0;"/><text fill="#000000" font-family="sans-serif" font-size="11" lengthAdjust="spacing" textLength="36" x="342" y="61.2104">main()</text><rect codeLine="4" fill="#FEFECE" filter="url(#f45bralgwmb54)" height="86.4141" id="CarDerictor" style="stroke:#A80036;stroke-width:1.5;" width="317" x="7" y="128"/><ellipse cx="125.75" cy="144" fill="#ADD1B2" rx="11" ry="11" style="stroke:#A80036;stroke-width:1.0;"/><path d="M128.7188,149.6406 Q128.1406,149.9375 127.5,150.0859 Q126.8594,150.2344 126.1563,150.2344 Q123.6563,150.2344 122.3359,148.5859 Q121.0156,146.9375 121.0156,143.8125 Q121.0156,140.6875 122.3359,139.0313 Q123.6563,137.375 126.1563,137.375 Q126.8594,137.375 127.5078,137.5313 Q128.1563,137.6875 128.7188,137.9844 L128.7188,140.7031 Q128.0938,140.125 127.5,139.8516 Q126.9063,139.5781 126.2813,139.5781 Q124.9375,139.5781 124.25,140.6484 Q123.5625,141.7188 123.5625,143.8125 Q123.5625,145.9063 124.25,146.9766 Q124.9375,148.0469 126.2813,148.0469 Q126.9063,148.0469 127.5,147.7734 Q128.0938,147.5 128.7188,146.9219 L128.7188,149.6406 Z " fill="#000000"/><text fill="#000000" font-family="sans-serif" font-size="12" lengthAdjust="spacing" textLength="71" x="146.25" y="148.1543">CarDerictor</text><line style="stroke:#A80036;stroke-width:1.5;" x1="8" x2="323" y1="160" y2="160"/><rect fill="none" height="6" style="stroke:#C82930;stroke-width:1.0;" width="6" x="15" y="168"/><text fill="#000000" font-family="sans-serif" font-size="11" lengthAdjust="spacing" textLength="218" x="27" y="174.2104">abstractCarBuilder:AbstractCarBuilder</text><line style="stroke:#A80036;stroke-width:1.5;" x1="8" x2="323" y1="180.8047" y2="180.8047"/><ellipse cx="18" cy="191.8047" fill="#84BE84" rx="3" ry="3" style="stroke:#038048;stroke-width:1.0;"/><text fill="#000000" font-family="sans-serif" font-size="11" lengthAdjust="spacing" textLength="291" x="27" y="195.0151">CarDirector(AbstractCarBuilder abstractCarBuilder)</text><ellipse cx="18" cy="204.6094" fill="#84BE84" rx="3" ry="3" style="stroke:#038048;stroke-width:1.0;"/><text fill="#000000" font-family="sans-serif" font-size="11" lengthAdjust="spacing" textLength="85" x="27" y="207.8198">construct():Car</text><rect codeLine="9" fill="#FEFECE" filter="url(#f45bralgwmb54)" height="86.4141" id="Car" style="stroke:#A80036;stroke-width:1.5;" width="74" x="128.5" y="446"/><ellipse cx="152.95" cy="462" fill="#ADD1B2" rx="11" ry="11" style="stroke:#A80036;stroke-width:1.0;"/><path d="M155.9188,467.6406 Q155.3406,467.9375 154.7,468.0859 Q154.0594,468.2344 153.3563,468.2344 Q150.8563,468.2344 149.5359,466.5859 Q148.2156,464.9375 148.2156,461.8125 Q148.2156,458.6875 149.5359,457.0313 Q150.8563,455.375 153.3563,455.375 Q154.0594,455.375 154.7078,455.5313 Q155.3563,455.6875 155.9188,455.9844 L155.9188,458.7031 Q155.2938,458.125 154.7,457.8516 Q154.1063,457.5781 153.4813,457.5781 Q152.1375,457.5781 151.45,458.6484 Q150.7625,459.7188 150.7625,461.8125 Q150.7625,463.9063 151.45,464.9766 Q152.1375,466.0469 153.4813,466.0469 Q154.1063,466.0469 154.7,465.7734 Q155.2938,465.5 155.9188,464.9219 L155.9188,467.6406 Z " fill="#000000"/><text fill="#000000" font-family="sans-serif" font-size="12" lengthAdjust="spacing" textLength="21" x="169.05" y="466.1543">Car</text><line style="stroke:#A80036;stroke-width:1.5;" x1="129.5" x2="201.5" y1="478" y2="478"/><rect fill="none" height="6" style="stroke:#C82930;stroke-width:1.0;" width="6" x="136.5" y="486"/><text fill="#000000" font-family="sans-serif" font-size="11" lengthAdjust="spacing" textLength="38" x="148.5" y="492.2104">engine</text><rect fill="none" height="6" style="stroke:#C82930;stroke-width:1.0;" width="6" x="136.5" y="498.8047"/><text fill="#000000" font-family="sans-serif" font-size="11" lengthAdjust="spacing" textLength="48" x="148.5" y="505.0151">skeleton</text><rect fill="none" height="6" style="stroke:#C82930;stroke-width:1.0;" width="6" x="136.5" y="511.6094"/><text fill="#000000" font-family="sans-serif" font-size="11" lengthAdjust="spacing" textLength="33" x="148.5" y="517.8198">wheel</text><line style="stroke:#A80036;stroke-width:1.5;" x1="129.5" x2="201.5" y1="524.4141" y2="524.4141"/><rect codeLine="14" fill="#FEFECE" filter="url(#f45bralgwmb54)" height="112.0234" id="AbstractCarBuilder" style="stroke:#A80036;stroke-width:1.5;" width="149" x="91" y="274"/><ellipse cx="106" cy="290" fill="#A9DCDF" rx="11" ry="11" style="stroke:#A80036;stroke-width:1.0;"/><path d="M106.1094,285.3438 L104.9531,290.4219 L107.2813,290.4219 L106.1094,285.3438 Z M104.625,283.1094 L107.6094,283.1094 L110.9688,295.5 L108.5156,295.5 L107.75,292.4375 L104.4688,292.4375 L103.7188,295.5 L101.2813,295.5 L104.625,283.1094 Z " fill="#000000"/><text fill="#000000" font-family="sans-serif" font-size="12" font-style="italic" lengthAdjust="spacing" textLength="117" x="120" y="294.1543">AbstractCarBuilder</text><line style="stroke:#A80036;stroke-width:1.5;" x1="92" x2="239" y1="306" y2="306"/><polygon fill="none" points="102,312,106,316,102,320,98,316" style="stroke:#B38D22;stroke-width:1.0;"/><text fill="#000000" font-family="sans-serif" font-size="11" lengthAdjust="spacing" textLength="42" x="111" y="320.2104">car:Car</text><line style="stroke:#A80036;stroke-width:1.5;" x1="92" x2="239" y1="326.8047" y2="326.8047"/><ellipse cx="102" cy="337.8047" fill="#84BE84" rx="3" ry="3" style="stroke:#038048;stroke-width:1.0;"/><text fill="#000000" font-family="sans-serif" font-size="11" font-style="italic" lengthAdjust="spacing" textLength="100" x="111" y="341.0151">void buildEngine()</text><ellipse cx="102" cy="350.6094" fill="#84BE84" rx="3" ry="3" style="stroke:#038048;stroke-width:1.0;"/><text fill="#000000" font-family="sans-serif" font-size="11" font-style="italic" lengthAdjust="spacing" textLength="111" x="111" y="353.8198">void buildSkeleton()</text><ellipse cx="102" cy="363.4141" fill="#84BE84" rx="3" ry="3" style="stroke:#038048;stroke-width:1.0;"/><text fill="#000000" font-family="sans-serif" font-size="11" font-style="italic" lengthAdjust="spacing" textLength="95" x="111" y="366.6245">void buildWheel()</text><ellipse cx="102" cy="376.2188" fill="#84BE84" rx="3" ry="3" style="stroke:#038048;stroke-width:1.0;"/><text fill="#000000" font-family="sans-serif" font-size="11" lengthAdjust="spacing" textLength="88" x="111" y="379.4292">void getResult()</text><rect codeLine="21" fill="#FEFECE" filter="url(#f45bralgwmb54)" height="86.4141" id="HighCarBuilder" style="stroke:#A80036;stroke-width:1.5;" width="137" x="275" y="287"/><ellipse cx="295.85" cy="303" fill="#ADD1B2" rx="11" ry="11" style="stroke:#A80036;stroke-width:1.0;"/><path d="M298.8188,308.6406 Q298.2406,308.9375 297.6,309.0859 Q296.9594,309.2344 296.2563,309.2344 Q293.7563,309.2344 292.4359,307.5859 Q291.1156,305.9375 291.1156,302.8125 Q291.1156,299.6875 292.4359,298.0313 Q293.7563,296.375 296.2563,296.375 Q296.9594,296.375 297.6078,296.5313 Q298.2563,296.6875 298.8188,296.9844 L298.8188,299.7031 Q298.1938,299.125 297.6,298.8516 Q297.0063,298.5781 296.3813,298.5781 Q295.0375,298.5781 294.35,299.6484 Q293.6625,300.7188 293.6625,302.8125 Q293.6625,304.9063 294.35,305.9766 Q295.0375,307.0469 296.3813,307.0469 Q297.0063,307.0469 297.6,306.7734 Q298.1938,306.5 298.8188,305.9219 L298.8188,308.6406 Z " fill="#000000"/><text fill="#000000" font-family="sans-serif" font-size="12" lengthAdjust="spacing" textLength="92" x="311.15" y="307.1543">HighCarBuilder</text><line style="stroke:#A80036;stroke-width:1.5;" x1="276" x2="411" y1="319" y2="319"/><line style="stroke:#A80036;stroke-width:1.5;" x1="276" x2="411" y1="327" y2="327"/><ellipse cx="286" cy="338" fill="#84BE84" rx="3" ry="3" style="stroke:#038048;stroke-width:1.0;"/><text fill="#000000" font-family="sans-serif" font-size="11" lengthAdjust="spacing" textLength="100" x="295" y="341.2104">void buildEngine()</text><ellipse cx="286" cy="350.8047" fill="#84BE84" rx="3" ry="3" style="stroke:#038048;stroke-width:1.0;"/><text fill="#000000" font-family="sans-serif" font-size="11" lengthAdjust="spacing" textLength="111" x="295" y="354.0151">void buildSkeleton()</text><ellipse cx="286" cy="363.6094" fill="#84BE84" rx="3" ry="3" style="stroke:#038048;stroke-width:1.0;"/><text fill="#000000" font-family="sans-serif" font-size="11" lengthAdjust="spacing" textLength="95" x="295" y="366.8198">void buildWheel()</text><rect codeLine="26" fill="#FEFECE" filter="url(#f45bralgwmb54)" height="86.4141" id="BottomCarBuilder" style="stroke:#A80036;stroke-width:1.5;" width="141" x="447" y="287"/><ellipse cx="462" cy="303" fill="#ADD1B2" rx="11" ry="11" style="stroke:#A80036;stroke-width:1.0;"/><path d="M464.9688,308.6406 Q464.3906,308.9375 463.75,309.0859 Q463.1094,309.2344 462.4063,309.2344 Q459.9063,309.2344 458.5859,307.5859 Q457.2656,305.9375 457.2656,302.8125 Q457.2656,299.6875 458.5859,298.0313 Q459.9063,296.375 462.4063,296.375 Q463.1094,296.375 463.7578,296.5313 Q464.4063,296.6875 464.9688,296.9844 L464.9688,299.7031 Q464.3438,299.125 463.75,298.8516 Q463.1563,298.5781 462.5313,298.5781 Q461.1875,298.5781 460.5,299.6484 Q459.8125,300.7188 459.8125,302.8125 Q459.8125,304.9063 460.5,305.9766 Q461.1875,307.0469 462.5313,307.0469 Q463.1563,307.0469 463.75,306.7734 Q464.3438,306.5 464.9688,305.9219 L464.9688,308.6406 Z " fill="#000000"/><text fill="#000000" font-family="sans-serif" font-size="12" lengthAdjust="spacing" textLength="109" x="476" y="307.1543">BottomCarBuilder</text><line style="stroke:#A80036;stroke-width:1.5;" x1="448" x2="587" y1="319" y2="319"/><line style="stroke:#A80036;stroke-width:1.5;" x1="448" x2="587" y1="327" y2="327"/><ellipse cx="458" cy="338" fill="#84BE84" rx="3" ry="3" style="stroke:#038048;stroke-width:1.0;"/><text fill="#000000" font-family="sans-serif" font-size="11" lengthAdjust="spacing" textLength="100" x="467" y="341.2104">void buildEngine()</text><ellipse cx="458" cy="350.8047" fill="#84BE84" rx="3" ry="3" style="stroke:#038048;stroke-width:1.0;"/><text fill="#000000" font-family="sans-serif" font-size="11" lengthAdjust="spacing" textLength="111" x="467" y="354.0151">void buildSkeleton()</text><ellipse cx="458" cy="363.6094" fill="#84BE84" rx="3" ry="3" style="stroke:#038048;stroke-width:1.0;"/><text fill="#000000" font-family="sans-serif" font-size="11" lengthAdjust="spacing" textLength="95" x="467" y="366.8198">void buildWheel()</text><path codeLine="32" d="M260.2994,330 C265.1773,330 270.0551,330 274.933,330 " fill="none" id="AbstractCarBuilder-backto-HighCarBuilder" style="stroke:#A80036;stroke-width:1.0;"/><polygon fill="none" points="260.2461,336.9999,240.2461,330,260.2461,322.9999,260.2461,336.9999" style="stroke:#A80036;stroke-width:1.0;"/><path codeLine="33" d="M239.1124,262.0158 C250.4576,254.6636 262.5598,248.3012 275,244 C332.5463,224.1033 354.6366,223.5819 412,244 C436.711,252.7957 459.8273,270.1322 478.0861,286.9494 " fill="none" id="AbstractCarBuilder-backto-BottomCarBuilder" style="stroke:#A80036;stroke-width:1.0;"/><polygon fill="none" points="242.8888,267.9196,222.5299,273.795,234.7813,256.5061,242.8888,267.9196" style="stroke:#A80036;stroke-width:1.0;"/><path codeLine="34" d="M165.5,399.2107 C165.5,415.0931 165.5,431.5328 165.5,445.9363 " fill="none" id="AbstractCarBuilder-backto-Car" style="stroke:#A80036;stroke-width:1.0;"/><polygon fill="#FFFFFF" points="165.5,386.0575,161.5,392.0575,165.5,398.0575,169.5,392.0575,165.5,386.0575" style="stroke:#A80036;stroke-width:1.0;"/><path codeLine="35" d="M165.5,227.4394 C165.5,242.4885 165.5,258.7445 165.5,273.7817 " fill="none" id="CarDerictor-backto-AbstractCarBuilder" style="stroke:#A80036;stroke-width:1.0;"/><polygon fill="#FFFFFF" points="165.5,214.0277,161.5,220.0277,165.5,226.0277,169.5,220.0277,165.5,214.0277" style="stroke:#A80036;stroke-width:1.0;"/><path codeLine="36" d="M328.8629,68.1276 C302.0644,85.0031 268.266,106.2865 238.3747,125.1096 " fill="none" id="BuilderDemo-to-CarDerictor" style="stroke:#A80036;stroke-width:1.0;stroke-dasharray:7.0,7.0;"/><polygon fill="#A80036" points="233.9941,127.8681,243.7413,126.4569,238.2251,125.2037,239.4783,119.6874,233.9941,127.8681" style="stroke:#A80036;stroke-width:1.0;"/><path codeLine="37" d="M373.9257,68.2498 C368.0054,119.1814 356.121,221.4227 349.0852,281.951 " fill="none" id="BuilderDemo-to-HighCarBuilder" style="stroke:#A80036;stroke-width:1.0;stroke-dasharray:7.0,7.0;"/><polygon fill="#A80036" points="348.5035,286.9548,353.5161,278.477,349.0809,281.9883,345.5696,277.5531,348.5035,286.9548" style="stroke:#A80036;stroke-width:1.0;"/><path codeLine="38" d="M392.2178,68.2498 C416.6443,119.2837 465.728,221.8335 494.6765,282.3151 " fill="none" id="BuilderDemo-to-BottomCarBuilder" style="stroke:#A80036;stroke-width:1.0;stroke-dasharray:7.0,7.0;"/><polygon fill="#A80036" points="496.8972,286.9548,496.6198,277.1099,494.7386,282.4448,489.4037,280.5636,496.8972,286.9548" style="stroke:#A80036;stroke-width:1.0;"/></g></svg>